<svg width="785" height="532" viewBox="0 0 785 532" fill="none" xmlns="http://www.w3.org/2000/svg">
<path opacity="0.1" d="M424.729 77.8466C376.487 77.7703 330.006 62.7827 285.536 46.1036C241.065 29.4245 196.948 10.8252 149.579 2.84613C119.077 -2.28377 84.4852 -1.93716 60.7282 16.2809C37.8725 33.8127 31.3284 62.9075 28.195 89.8186C25.845 110.047 24.7913 131.295 33.8587 149.831C40.1601 162.705 50.9052 173.325 58.5099 185.602C84.9705 228.305 69.2688 282.654 43.7857 326.203C31.8275 346.591 17.8174 366.161 8.79846 387.762C-0.220455 409.363 -3.87377 433.875 5.44323 455.247C14.6909 476.439 35.4878 491.892 57.7335 502.436C102.994 523.926 155.59 528.653 206.778 530.574C320.107 534.83 433.609 527.246 546.814 519.621C588.705 516.806 630.784 513.964 671.796 505.555C694.568 500.89 718.007 493.937 734.117 478.575C754.567 459.081 758.671 427.158 743.691 404.163C718.554 365.557 652.586 358.098 634.493 316.38C624.531 293.413 632.989 267.161 645.488 245.074C672.309 197.734 718.582 155.391 719.213 102.345C719.643 65.9092 695.414 30.298 659.339 14.3537C621.516 -2.38082 570.051 1.73696 543.687 32.5718C516.54 64.3217 467.328 77.9159 424.729 77.8466Z" fill="#6C63FF"/>
<path d="M664.697 433.958C664.697 433.958 656.177 428.336 647.734 432.336C647.734 432.336 650.333 437.348 661.023 436.87L664.697 433.958Z" fill="#037EF3"/>
<path d="M665.744 434.263C665.744 434.263 668.337 444.135 661.841 450.852C661.841 450.852 657.931 446.776 661.841 436.807L665.744 434.263Z" fill="#037EF3"/>
<path d="M676.371 424.787C676.371 424.787 675.74 416.385 656.787 419.172C656.787 419.172 656.697 424.593 663.352 427.158C670.007 429.723 673.051 427.56 676.371 424.787Z" fill="#037EF3"/>
<path d="M677.536 424.724C677.536 424.724 685.557 427.303 678.409 445.085C678.409 445.085 673.12 443.899 672.17 436.828C671.221 429.757 674.063 427.303 677.536 424.724Z" fill="#037EF3"/>
<path d="M688.274 412.815C688.274 412.815 689.355 398.999 669.979 400.42C669.979 400.42 668.593 412.898 684.849 416.135L688.274 412.815Z" fill="#037EF3"/>
<path d="M701.078 397.217C701.078 397.217 698.416 381.564 679.054 386.23C679.054 386.23 678.978 399.768 697.91 400.954L701.078 397.217Z" fill="#037EF3"/>
<path d="M710.429 381.093C710.429 381.093 705.986 365.842 686.797 370.41C686.797 370.41 691.359 384.122 709.154 383.914L710.429 381.093Z" fill="#037EF3"/>
<path d="M719.316 365.349C719.316 365.349 714.97 349.523 696.44 354.258C696.44 354.258 702.624 369.294 718.096 368.032L719.316 365.349Z" fill="#037EF3"/>
<path d="M725.05 350.39C725.05 350.39 721.708 331.062 704.454 335.319C704.454 335.319 709.473 352.927 723.795 353.204L725.05 350.39Z" fill="#037EF3"/>
<path d="M730.415 332.317C730.415 332.317 726.408 312.803 708.925 318.452C708.925 318.452 715.781 336.885 729.181 334.979L730.415 332.317Z" fill="#037EF3"/>
<path d="M733.743 315.492C733.743 315.492 727.372 295.985 713.861 296.512C713.861 296.512 720.377 317.121 732.578 319.388L733.743 315.492Z" fill="#037EF3"/>
<path d="M735.857 299.084C735.857 299.084 728.925 275.597 717.93 277.406C717.93 277.406 722.727 295.361 735.469 302.737L735.857 299.084Z" fill="#037EF3"/>
<path d="M737.036 279.479C737.036 279.479 730.54 259.902 719.705 259.126C719.705 259.126 724.128 278.384 736.814 284.561L737.036 279.479Z" fill="#037EF3"/>
<path d="M738.374 261.226C738.374 261.226 730.27 241.629 723.123 241.192C723.123 241.192 726.637 260.478 737.68 264.443L738.374 261.226Z" fill="#037EF3"/>
<path d="M739.268 244.229C739.268 244.229 734.263 222.919 727.122 221.186C727.122 221.186 728.107 238.586 738.554 245.816L739.268 244.229Z" fill="#037EF3"/>
<path d="M741.964 221.983C741.964 221.983 736.724 205.026 730.921 202.441C730.921 202.441 732.072 222.433 740.627 226.135L741.964 221.983Z" fill="#037EF3"/>
<path d="M744.204 207.376L745.264 177.471C745.264 177.471 734.436 200.035 743.406 212.652L744.204 207.376Z" fill="#037EF3"/>
<path d="M752.585 177.658C752.585 177.658 760.39 155.814 762.29 154.601C762.29 154.601 746.969 168.764 748.467 186.995L752.585 177.658Z" fill="#037EF3"/>
<path d="M688.801 412.718C688.801 412.718 702.541 410.915 702.125 430.34C702.125 430.34 689.709 432.357 685.66 416.302L688.801 412.718Z" fill="#037EF3"/>
<path d="M701.723 396.697C701.723 396.697 717.604 396.642 716.28 416.524C716.28 416.524 702.956 418.901 698.554 400.448L701.723 396.697Z" fill="#037EF3"/>
<path d="M710.582 382.361C710.582 382.361 724.994 375.602 734.221 393.044C734.221 393.044 720.904 398.68 709.313 385.176L710.582 382.361Z" fill="#037EF3"/>
<path d="M719.642 365.495C719.642 365.495 734.394 358.299 743.06 375.346C743.06 375.346 727.691 380.642 718.422 368.192L719.642 365.495Z" fill="#037EF3"/>
<path d="M724.862 350.805C724.862 350.805 739.067 337.239 750.401 350.965C750.401 350.965 735.892 362.126 724.204 353.828L724.862 350.805Z" fill="#037EF3"/>
<path d="M729.611 331.853C729.611 331.853 743.905 317.988 755.15 332.49C755.15 332.49 739.108 343.88 729.105 334.764L729.611 331.853Z" fill="#037EF3"/>
<path d="M732.287 314.938C732.287 314.938 743.295 297.607 756.252 301.482C756.252 301.482 744.834 319.832 732.412 319.014L732.287 314.938Z" fill="#037EF3"/>
<path d="M735.531 298.973C735.531 298.973 746.623 277.143 757.111 280.949C757.111 280.949 749.118 297.725 735.247 302.654L735.531 298.973Z" fill="#037EF3"/>
<path d="M736.294 278.377C736.294 278.377 747.697 261.199 758.38 263.292C758.38 263.292 749.063 280.713 735.191 283.347L736.294 278.377Z" fill="#037EF3"/>
<path d="M737.167 260.838C737.167 260.838 745.999 241.566 753.188 241.393C753.188 241.393 748.945 260.54 737.757 264.083L737.167 260.838Z" fill="#037EF3"/>
<path d="M738.914 243.806C738.914 243.806 748.737 224.284 756.12 224.25C756.12 224.25 751.094 240.936 739.247 245.525L738.914 243.806Z" fill="#037EF3"/>
<path d="M740.398 223.182C740.398 223.182 747.746 207.03 753.826 205.2C753.826 205.2 750.151 224.887 741.202 227.466L740.398 223.182Z" fill="#037EF3"/>
<path d="M745.084 206.808L761.5 181.796C761.5 181.796 757.299 206.468 742.685 211.605L745.084 206.808Z" fill="#037EF3"/>
<path d="M756.356 179.668C756.356 179.668 775.441 166.497 776.127 164.362C776.127 164.362 766.422 182.815 748.398 186.073L756.356 179.668Z" fill="#037EF3"/>
<path d="M757.493 173.741C757.493 173.741 779.406 152.674 785 152.702C785 152.702 766.928 153.526 756.966 172.618L757.493 173.741Z" fill="#037EF3"/>
<path d="M740.605 226.309L741.403 226.413C745.52 194.177 751.524 175.114 758.31 172.77L758.047 172.015C750.858 174.51 744.827 193.283 740.605 226.309Z" fill="#444053"/>
<path d="M734.554 303.375L735.76 303.479C736.009 300.47 736.204 297.385 736.335 294.321C737.486 267.639 739.275 243.147 741.618 224.783L740.924 223.917C738.574 242.315 736.287 267.556 735.136 294.266C734.997 297.316 734.803 300.38 734.554 303.375Z" fill="#444053"/>
<path d="M642.195 449.306C642.41 449.209 663.643 439.733 685.681 417.113C698.591 403.867 709.319 388.658 717.466 372.053C727.649 351.305 733.861 325.808 735.947 301.039L734.692 301.628C730.013 357.218 704.703 395.214 684.572 415.9C662.749 438.319 641.758 447.705 641.55 447.788L642.195 449.306Z" fill="#444053"/>
<path d="M726.998 33.882H60.8877C59.3138 33.882 57.8045 34.5072 56.6917 35.62C55.5788 36.7329 54.9536 38.2422 54.9536 39.816V57.1052H732.932V39.816C732.932 38.2422 732.306 36.7329 731.194 35.62C730.081 34.5072 728.571 33.882 726.998 33.882Z" fill="#3F3D56"/>
<path d="M54.9536 57.1052V446.173C54.9536 449.346 56.2142 452.39 58.4581 454.634C60.702 456.878 63.7454 458.138 66.9187 458.138H720.966C724.14 458.138 727.183 456.878 729.427 454.634C731.671 452.39 732.932 449.346 732.932 446.173V57.1052H54.9536Z" fill="white"/>
<path opacity="0.8" d="M65.6987 48.0863C67.2301 48.0863 68.4716 46.8448 68.4716 45.3133C68.4716 43.7819 67.2301 42.5404 65.6987 42.5404C64.1673 42.5404 62.9258 43.7819 62.9258 45.3133C62.9258 46.8448 64.1673 48.0863 65.6987 48.0863Z" fill="#FA5959"/>
<path opacity="0.8" d="M73.3242 48.0863C74.8556 48.0863 76.0971 46.8448 76.0971 45.3133C76.0971 43.7819 74.8556 42.5404 73.3242 42.5404C71.7927 42.5404 70.5513 43.7819 70.5513 45.3133C70.5513 46.8448 71.7927 48.0863 73.3242 48.0863Z" fill="#FED253"/>
<path opacity="0.8" d="M80.9497 48.0863C82.4811 48.0863 83.7226 46.8448 83.7226 45.3133C83.7226 43.7819 82.4811 42.5404 80.9497 42.5404C79.4182 42.5404 78.1768 43.7819 78.1768 45.3133C78.1768 46.8448 79.4182 48.0863 80.9497 48.0863Z" fill="#8CCF4D"/>
<g opacity="0.3">
<path opacity="0.3" d="M707.629 80.668H80.95V434.215H707.629V80.668Z" stroke="#3F3D56" stroke-miterlimit="10"/>
<path opacity="0.3" d="M625.828 80.668H162.751V434.215H625.828V80.668Z" stroke="#3F3D56" stroke-miterlimit="10"/>
<path opacity="0.3" d="M544.027 80.668H244.552V434.215H544.027V80.668Z" stroke="#3F3D56" stroke-miterlimit="10"/>
<path opacity="0.3" d="M462.226 80.668H326.353V434.215H462.226V80.668Z" stroke="#3F3D56" stroke-miterlimit="10"/>
<path opacity="0.3" d="M394.289 80.668V434.215" stroke="#3F3D56" stroke-miterlimit="10"/>
<path opacity="0.3" d="M707.629 131.967H80.9497V382.916H707.629V131.967Z" stroke="#3F3D56" stroke-miterlimit="10"/>
<path opacity="0.3" d="M707.629 182.573H80.9497V332.31H707.629V182.573Z" stroke="#3F3D56" stroke-miterlimit="10"/>
<path opacity="0.3" d="M707.629 233.178H80.9497V281.704H707.629V233.178Z" stroke="#3F3D56" stroke-miterlimit="10"/>
</g>
<path opacity="0.1" d="M228.261 100.425H179.042V118.449H228.261V100.425Z" fill="#3F3D56"/>
<path opacity="0.1" d="M138.834 149.644H102.093V167.668H138.834V149.644Z" fill="#3F3D56"/>
<path opacity="0.1" d="M307.982 100.425H258.763V118.449H307.982V100.425Z" fill="#3F3D56"/>
<path opacity="0.1" d="M382.851 100.425H333.632V118.449H382.851V100.425Z" fill="#3F3D56"/>
<path opacity="0.1" d="M452.174 100.425H402.955V118.449H452.174V100.425Z" fill="#3F3D56"/>
<path opacity="0.1" d="M529.815 100.425H480.596V118.449H529.815V100.425Z" fill="#3F3D56"/>
<path opacity="0.1" d="M608.844 100.425H559.624V118.449H608.844V100.425Z" fill="#3F3D56"/>
<path opacity="0.1" d="M692.724 100.425H643.505V118.449H692.724V100.425Z" fill="#3F3D56"/>
<path d="M308.433 198.136H276.454V229.095H308.433V198.136Z" fill="url(#paint0_linear)"/>
<path d="M307.885 198.669H277.009V228.561H307.885V198.669Z" fill="#7CFCFF"/>
<path d="M374.317 191.425H342.339V222.385H374.317V191.425Z" fill="url(#paint1_linear)"/>
<path d="M373.77 191.959H342.893V221.851H373.77V191.959Z" fill="#FFFFA5"/>
<path d="M501.178 296.796H469.2V327.756H501.178V296.796Z" fill="url(#paint2_linear)"/>
<path d="M500.631 297.33H469.754V327.222H500.631V297.33Z" fill="#FFFFA5"/>
<path d="M219.547 142.962H187.568V173.921H219.547V142.962Z" fill="url(#paint3_linear)"/>
<path d="M218.992 143.495H188.116V173.387H218.992V143.495Z" fill="#FFFFA5"/>
<path d="M283.088 187.328H251.11V218.288H283.088V187.328Z" fill="url(#paint4_linear)"/>
<path d="M282.534 187.862H251.657V217.754H282.534V187.862Z" fill="#FF69B4"/>
<path d="M538.585 296.574H506.606V327.534H538.585V296.574Z" fill="url(#paint5_linear)"/>
<path d="M538.037 297.108H507.161V327H538.037V297.108Z" fill="#7CFCFF"/>
<path d="M594.736 143.371H562.758V174.33H594.736V143.371Z" fill="url(#paint6_linear)"/>
<path d="M594.189 143.904H563.312V173.796H594.189V143.904Z" fill="#7CFCFF"/>
<path d="M591.27 241.809H559.292V272.769H591.27V241.809Z" fill="url(#paint7_linear)"/>
<path d="M590.723 242.343H559.846V272.235H590.723V242.343Z" fill="#7CFCFF"/>
<path d="M615.533 248.741H583.555V279.701H615.533V248.741Z" fill="url(#paint8_linear)"/>
<path d="M614.986 249.275H584.109V279.167H614.986V249.275Z" fill="#7CFCFF"/>
<path d="M513.241 285.767H481.262V316.726H513.241V285.767Z" fill="url(#paint9_linear)"/>
<path d="M512.686 286.301H481.809V316.193H512.686V286.301Z" fill="#FF69B4"/>
<path d="M516.707 192.181H484.728V223.14H516.707V192.181Z" fill="url(#paint10_linear)"/>
<path d="M516.152 192.715H485.276V222.607H516.152V192.715Z" fill="#FF69B4"/>
<path opacity="0.1" d="M138.834 198.17H102.093V216.194H138.834V198.17Z" fill="#3F3D56"/>
<path opacity="0.1" d="M138.834 248.776H102.093V266.8H138.834V248.776Z" fill="#3F3D56"/>
<path opacity="0.1" d="M138.834 299.382H102.093V317.406H138.834V299.382Z" fill="#3F3D56"/>
<path opacity="0.1" d="M138.834 349.988H102.093V368.011H138.834V349.988Z" fill="#3F3D56"/>
<path opacity="0.1" d="M138.834 400.593H102.093V418.617H138.834V400.593Z" fill="#3F3D56"/>
<path d="M213.703 243.376C214.729 242.724 214.32 240.977 213.266 240.374C212.212 239.771 210.902 239.972 209.717 240.208C209.767 239.906 209.721 239.595 209.584 239.321C209.447 239.047 209.226 238.824 208.954 238.683V238.419C209.648 237.726 209.384 236.34 208.538 235.73C207.693 235.119 206.375 235.092 205.239 235.147C205.319 234.458 205.236 233.76 204.995 233.109C204.754 232.458 204.362 231.874 203.852 231.404C203.653 231.189 203.381 231.058 203.09 231.036C202.396 231.036 202.202 231.924 202.154 232.582C202.022 234.312 201.736 236.026 201.301 237.705L179.755 273.753C177.357 277.219 184.809 266.821 182.411 270.322C181.196 272.227 179.773 273.992 178.168 275.583C176.727 276.869 175.115 277.949 173.378 278.793C172.218 278.827 171.075 278.502 170.106 277.864C168.889 277.011 167.824 275.959 166.958 274.751C165.08 272.364 163.382 269.841 161.877 267.202C161.355 266.367 160.963 265.458 160.713 264.505C160.394 263.008 160.712 261.386 160.123 259.979C159.872 259.454 159.561 258.961 159.194 258.509L157.704 256.533V256.443C157.537 253.518 155.16 251.258 152.941 249.331C151.056 247.681 149.011 245.962 146.522 245.643C145.191 245.469 143.825 245.726 142.494 245.559C141.406 245.421 140.373 245.012 139.292 244.832C138.251 244.689 137.197 244.669 136.151 244.769L135.708 244.36C138.008 243.388 139.963 241.746 141.316 239.646C142.342 237.989 142.903 236.076 143.853 234.371C145.011 232.291 146.73 230.572 148.013 228.575C151.111 223.841 151.68 217.747 150.425 212.229C149.17 206.711 146.231 201.699 142.799 197.228C136.144 188.618 124.983 185.443 114.474 187.106C113.781 187.217 113.088 187.349 112.394 187.502C110.626 187.874 108.901 188.424 107.244 189.145C105.002 190.062 103.056 191.581 101.622 193.533C101.235 194.103 100.907 194.712 100.644 195.349C100.451 195.836 100.293 196.336 100.173 196.846C99.8505 198.386 99.764 199.966 99.9163 201.533C99.9579 202.066 100.013 202.6 100.076 203.134L100.18 203.938C100.249 204.472 100.325 205.006 100.402 205.539C100.512 206.344 100.616 207.148 100.693 207.938C100.754 208.497 100.784 209.06 100.783 209.623C100.783 209.768 100.783 209.907 100.783 210.045C100.758 210.464 100.696 210.879 100.596 211.286C100.541 211.51 100.472 211.73 100.388 211.945C100.138 212.582 99.8096 213.185 99.4102 213.74C98.8703 214.494 98.2845 215.214 97.6564 215.896L97.0533 216.589C96.8522 216.818 96.6581 217.054 96.4571 217.283C95.6645 218.207 94.9394 219.187 94.2873 220.215C93.9691 220.732 93.6843 221.27 93.4346 221.823C93.2449 222.243 93.0805 222.673 92.9424 223.113C92.766 223.702 92.6407 224.305 92.5681 224.915C92.5681 225.068 92.5681 225.22 92.5265 225.373C92.5265 225.671 92.5265 225.976 92.5265 226.281C92.5417 226.583 92.5741 226.884 92.6235 227.182C92.6723 227.478 92.7418 227.77 92.8315 228.055C92.9184 228.345 93.0273 228.628 93.1573 228.901C93.1573 228.977 93.2266 229.054 93.2682 229.13L93.3791 229.359C93.4554 229.511 93.5317 229.657 93.601 229.809C93.7056 230.03 93.7825 230.263 93.8297 230.503C93.8297 230.579 93.8297 230.662 93.8297 230.745C93.8297 230.828 93.8297 230.925 93.8297 231.009C93.7194 231.705 93.3536 232.335 92.8038 232.776C92.6651 232.908 92.5265 233.026 92.3809 233.151L92.1591 233.331L91.7085 233.684L91.2787 234.031C90.901 234.348 90.5508 234.695 90.2319 235.071C86.3285 234.862 82.4159 235.245 78.6272 236.208C77.2812 236.646 75.882 236.9 74.4679 236.963C74.1285 236.995 73.7867 236.942 73.4724 236.811C73.1581 236.679 72.881 236.472 72.6655 236.208C72.4253 235.688 72.3596 235.104 72.4783 234.544C72.6652 232.223 72.2846 229.891 71.3691 227.75C71.1479 227.124 70.7653 226.567 70.26 226.135C70.0025 225.926 69.6852 225.804 69.3538 225.786C69.0224 225.769 68.694 225.857 68.416 226.038C69.5885 229.831 69.4196 233.912 67.9376 237.594C67.1765 239.33 66.2843 241.006 65.2687 242.606C63.6881 245.303 62.8008 248.388 61.3936 251.182C62.9672 256.513 62.6136 262.204 63.4732 267.708C64.2427 272.831 66.0313 277.739 67.8267 282.599C69.2132 286.266 70.6551 290.093 73.5944 292.671C74.5417 293.627 75.8195 294.183 77.1645 294.224C78.1601 294.101 79.1113 293.74 79.9374 293.17C80.7948 292.703 81.5853 292.123 82.2875 291.444C82.5473 291.16 82.7794 290.851 82.9807 290.522C83.0668 290.987 83.2435 291.43 83.5006 291.826C85.1921 288.179 87.05 284.616 89.0465 281.129C89.6411 280.812 90.1991 280.431 90.7102 279.992C90.7102 280.117 90.7726 280.242 90.8073 280.367C90.7171 280.699 90.634 281.06 90.5438 281.372C90.4537 281.684 90.3497 282.016 90.2527 282.328C90.1556 282.64 90.1071 282.793 90.0308 283.022C89.9546 283.25 89.8437 283.576 89.7397 283.853C89.6357 284.131 89.5179 284.457 89.4 284.755C89.2822 285.053 89.2406 285.184 89.1504 285.392C88.9355 285.919 88.7137 286.432 88.4572 286.945C88.6504 287.039 88.8495 287.12 89.0534 287.188L89.1851 287.229C89.3648 287.286 89.5477 287.333 89.7328 287.368H89.9338C90.0693 287.389 90.2058 287.403 90.3428 287.41H90.4953H90.9459C91.442 287.388 91.9334 287.304 92.4086 287.16L92.679 288.269C93.3705 290.762 93.8163 293.316 94.01 295.895C94.1417 298.806 93.6356 301.767 94.1972 304.63C94.4814 306.12 95.0568 307.548 95.2647 309.045C95.3988 310.456 95.3732 311.877 95.1885 313.281C94.865 316.682 94.5415 320.086 94.2179 323.492C94.1882 324.743 93.8904 325.972 93.3445 327.097C92.8662 327.929 92.0897 328.879 92.575 329.704C93.374 329.491 94.1871 329.336 95.0082 329.239C94.7101 330.321 94.4398 331.409 94.1833 332.504C93.9331 333.318 93.8668 334.178 93.9892 335.021C94.1625 335.811 94.6824 336.525 94.7379 337.329C94.8627 338.577 93.9961 339.679 93.5178 340.837C92.2977 343.79 93.594 347.118 94.9043 350.043L98.7309 358.722L101.871 365.842C102.8 367.921 103.736 370.07 104.644 372.206C108.737 381.927 112.079 391.948 114.64 402.181C114.726 402.645 114.903 403.088 115.16 403.484C115.687 404.177 116.651 404.399 117.434 404.829C119.784 406.125 120.055 409.993 117.906 411.602C118.342 416.815 114.439 421.855 112.429 426.679C107.798 437.771 108.637 450.291 107.05 462.214L108.845 461.168C109.058 461.263 109.254 461.392 109.427 461.549C109.386 461.771 109.337 462.002 109.282 462.242C109.039 463.256 108.651 464.229 108.131 465.133C107.084 466.928 105.483 468.53 105.24 470.596C105.095 471.843 105.476 473.091 105.469 474.346C105.469 474.464 105.469 474.575 105.469 474.693C105.31 474.54 105.067 474.554 104.707 474.838C104.142 475.431 103.751 476.167 103.577 476.966C103.265 477.861 103.015 478.769 102.765 479.677L101.837 482.88C101.362 484.81 100.734 486.699 99.9579 488.529C99.2942 489.755 98.7376 491.035 98.2941 492.356C98.047 493.433 97.9513 494.539 98.0099 495.642C97.9917 496.699 98.1438 497.752 98.4605 498.761C98.8766 499.755 99.4953 500.651 100.277 501.392C101.059 502.134 101.987 502.704 103.001 503.066C105.032 503.78 107.159 504.182 109.31 504.259C109.861 504.329 110.42 504.313 110.966 504.21C111.551 504.042 112.096 503.756 112.568 503.371C115.493 501.222 117.004 497.271 117.268 493.666C117.194 492.922 117.062 492.185 116.873 491.462C117.053 487.517 116.478 483.552 116.776 479.621C116.838 480.072 116.9 480.516 116.97 480.959L117.663 485.375C117.622 485.218 117.541 485.075 117.427 484.959C116.914 486.594 116.824 488.333 117.164 490.013C117.509 491.685 117.996 493.324 118.62 494.914L119.562 497.548C119.79 498.343 120.171 499.085 120.685 499.732C121.51 500.64 122.765 500.98 123.971 501.271C126.564 502.028 129.233 502.493 131.93 502.657C132.29 502.7 132.655 502.632 132.976 502.463C133.141 502.341 133.299 502.209 133.448 502.068C133.687 501.896 133.943 501.748 134.21 501.624C135.369 501.015 136.244 499.978 136.65 498.734C136.846 498.115 136.906 497.461 136.829 496.817C136.751 496.172 136.537 495.552 136.2 494.997C135.885 494.529 135.525 494.093 135.125 493.694L130.384 488.668C129.659 487.807 128.886 486.988 128.068 486.214C127.971 486.114 127.85 486.039 127.718 485.996C127.585 485.952 127.444 485.941 127.306 485.964C126.016 482.748 126.183 478.991 126.405 475.462C126.474 474.408 127.049 472.225 127.278 470.429C128.193 470.12 129.045 469.651 129.794 469.043C130.517 468.515 131.03 467.749 131.243 466.88C133.635 454.665 137.482 442.825 141.115 430.922C141.475 429.75 141.808 428.572 142.176 427.4C142.328 426.901 142.467 426.395 142.612 425.889C142.758 425.383 142.855 425.071 142.973 424.662C143.167 423.969 143.361 423.276 143.548 422.582C143.604 422.395 143.652 422.208 143.708 422.021C143.704 421.984 143.704 421.947 143.708 421.91C143.936 421.057 144.158 420.205 144.401 419.352C144.484 419.019 144.574 418.7 144.657 418.368C144.928 417.286 145.198 416.191 145.455 415.103C145.497 414.952 145.529 414.799 145.552 414.645C145.645 414.26 145.619 413.856 145.475 413.487C145.406 413.344 145.315 413.213 145.205 413.099C145.129 413.009 145.046 412.919 144.962 412.836C144.879 412.753 144.782 412.642 144.699 412.538C144.48 412.269 144.315 411.961 144.214 411.629C144.214 411.297 144.214 410.936 144.214 410.631C144.214 410.326 144.172 409.938 144.151 409.577C144.225 409.109 144.33 408.646 144.463 408.191C144.546 407.921 144.637 407.65 144.72 407.38C144.803 407.11 144.928 406.687 145.039 406.375C145.453 405.902 145.678 405.292 145.669 404.662C146.099 403.59 146.573 402.539 147.091 401.508C147.729 400.464 148.16 399.306 148.359 398.098C148.356 397.006 148.221 395.919 147.957 394.86C147.264 390.354 149.344 385.966 150.876 381.689C152.012 378.534 152.875 375.287 153.454 371.984C153.905 369.453 154.217 366.798 155.569 364.608C156.015 363.993 156.396 363.333 156.706 362.639C156.915 361.914 157.018 361.162 157.011 360.407C157.181 357.346 157.922 354.343 159.194 351.554C159.476 351.014 159.668 350.431 159.763 349.828C159.766 349.789 159.766 349.749 159.763 349.71V349.544L160.116 349.488C160.719 345.669 161.329 341.412 160.914 337.565C160.373 333.108 158.202 329.009 154.82 326.057H154.889C156.082 325.454 156.616 323.978 156.636 322.674C156.639 321.687 156.42 320.711 155.995 319.82C155.571 318.928 154.951 318.144 154.182 317.524C153.839 317.31 153.553 317.015 153.35 316.664C153.235 316.304 153.2 315.923 153.246 315.548C153.252 314.416 152.921 313.308 152.295 312.365C151.669 311.422 150.777 310.686 149.732 310.252C149.515 310.191 149.317 310.077 149.156 309.919C148.978 309.613 148.924 309.251 149.004 308.907C149.068 307.781 148.824 306.659 148.297 305.663C147.771 304.666 146.982 303.831 146.016 303.25C146.293 301.767 146.571 300.214 146.148 298.758C145.725 297.302 144.359 295.985 142.862 296.193C144.082 292.865 142.349 289.164 142.806 285.649C143.007 284.138 143.611 282.689 143.687 281.171C143.756 279.784 143.416 278.301 144.089 277.094C144.761 275.888 146.349 274.945 145.94 273.628C145.766 273.067 145.247 272.679 145.004 272.131C144.761 271.583 145.732 270.744 146.231 271.05C146.467 270.869 146.702 270.682 146.924 270.488C146.997 271.193 147.136 271.889 147.34 272.568C147.68 273.705 148.2 274.772 148.553 275.902C149.094 277.628 149.246 279.5 150.12 281.081C151.506 283.611 154.439 284.866 156.421 286.966C157.586 288.193 158.425 289.739 159.624 290.904C160.535 291.754 161.534 292.505 162.605 293.143L169.01 297.302C169.675 297.785 170.415 298.152 171.201 298.39C171.7 298.485 172.212 298.478 172.708 298.368C173.203 298.259 173.671 298.049 174.083 297.753C174.495 297.456 174.842 297.079 175.104 296.644C175.365 296.209 175.535 295.725 175.603 295.222C175.014 295.014 174.477 294.681 174.029 294.245C174.12 294.245 174.21 294.245 174.3 294.203C175.821 293.805 177.229 293.058 178.411 292.02C182.972 288.387 186.251 283.431 189.454 278.557C192.809 273.448 208.954 259.93 208.954 259.93V254.454C211.009 253.263 212.831 251.71 214.334 249.871C215.144 248.891 215.618 247.676 215.686 246.405C215.717 245.756 215.541 245.113 215.185 244.569C214.829 244.025 214.31 243.607 213.703 243.376ZM79.4244 256.513C79.1148 258.504 78.7335 260.482 78.2806 262.447C77.7817 264.718 77.1427 266.957 76.3673 269.15L76.1177 269.843C75.889 269.414 75.6602 268.991 75.4245 268.554C74.9046 267.466 74.4817 266.336 74.0381 265.206L71.3622 257.996C71.0156 257.06 70.669 255.979 71.1889 255.119C71.57 254.593 72.1017 254.194 72.714 253.975C74.5954 253.112 76.5607 252.446 78.5787 251.986C79.2168 251.858 79.8465 251.691 80.4643 251.487C79.9668 253.127 79.6188 254.809 79.4244 256.513ZM82.3845 247.501C82.2953 247.341 82.2484 247.16 82.2484 246.977C82.2484 246.794 82.2953 246.614 82.3845 246.454C82.5848 246.252 82.8196 246.088 83.0778 245.969L83.2788 245.83C83.0015 246.405 82.6895 246.96 82.3845 247.521V247.501ZM87.9304 239.66C87.1434 240.313 86.4277 241.047 85.7952 241.851C85.1165 242.747 84.5048 243.693 83.9651 244.679C84.0468 244.296 84.0186 243.897 83.8837 243.529C83.7488 243.161 83.5127 242.839 83.2025 242.599C82.957 242.465 82.7249 242.307 82.5093 242.128C82.2777 241.819 82.1782 241.431 82.2328 241.049C82.2874 240.666 82.4916 240.322 82.8005 240.09C83.4384 239.652 84.1841 239.398 84.9564 239.355L88.1522 238.884C88.0551 239.154 87.9928 239.417 87.9234 239.681L87.9304 239.66ZM117.85 471.649C117.906 470.691 117.844 469.729 117.663 468.786C118.058 468.786 118.453 468.786 118.841 468.786C118.516 469.708 118.183 470.686 117.85 471.649Z" fill="url(#paint11_linear)"/>
<path d="M114.592 189.186C109.046 190.08 102.877 192.215 100.728 197.415C99.1263 201.345 100.367 205.768 100.776 209.99C100.931 211.104 100.891 212.237 100.658 213.338C100.201 215.12 98.9391 216.562 97.7191 217.941C96.0241 219.693 94.6011 221.688 93.4973 223.861C92.499 226.08 92.1802 228.714 93.2131 230.932C93.5644 231.502 93.8 232.136 93.9063 232.797C93.9756 234.239 92.4644 235.154 91.3552 236.076C87.1958 239.542 87.3691 245.781 87.3345 251.209C87.2706 262.277 84.8135 273.2 80.1318 283.23C81.8864 284.118 83.8681 284.457 85.8183 284.202C87.7685 283.948 89.5966 283.111 91.0641 281.801C90.4876 284.266 89.6558 286.664 88.5823 288.956C92.1039 290.661 96.3534 287.86 98.1211 284.366C99.8889 280.873 100.097 276.81 101.352 273.101C102.606 269.393 104.818 266.169 105.795 262.433C106.107 261.199 106.301 259.882 107.057 258.856C107.694 258.113 108.442 257.475 109.275 256.963C112.932 254.324 115.673 250.608 117.116 246.336C121.427 247.286 125.83 248.242 130.225 247.84C134.62 247.438 139.112 245.449 141.434 241.691C142.46 240.034 143.015 238.128 143.964 236.423C145.129 234.343 146.841 232.624 148.124 230.634C151.216 225.899 151.784 219.82 150.529 214.302C149.275 208.784 146.37 203.792 142.904 199.321C136.263 190.697 125.102 187.502 114.592 189.186Z" fill="#303D5C"/>
<path d="M79.591 258.523C79.279 260.506 78.8978 262.488 78.4541 264.45C77.951 266.719 77.3121 268.955 76.5408 271.147C76.0872 272.107 75.88 273.164 75.9377 274.225C76.0745 274.874 76.3256 275.493 76.6794 276.055C79.2097 280.554 82.6343 284.9 82.9185 290.058C82.9878 291.34 82.9185 292.734 83.6117 293.794C85.5666 289.584 87.7249 285.48 90.0865 281.483C92.5544 277.323 95.2996 273.067 96.0067 268.256C96.2886 265.998 96.2583 263.712 95.9165 261.462C95.5907 258.932 95.0223 256.339 93.4833 254.315C91.8057 252.124 87.2442 248.818 84.2426 249.504C80.7556 250.301 80.0347 255.701 79.591 258.523Z" fill="#037EF3"/>
<path d="M168.941 282.772C172.255 281.42 175.638 279.999 178.265 277.559C179.87 275.968 181.293 274.203 182.508 272.297L190.307 261.046C192.151 258.37 194.057 255.563 194.466 252.339C199.033 247.517 201.785 241.259 202.251 234.634C202.306 233.976 202.528 233.109 203.187 233.088C203.478 233.11 203.751 233.241 203.949 233.456C204.459 233.925 204.85 234.508 205.091 235.157C205.332 235.807 205.416 236.504 205.336 237.192C206.473 237.137 207.707 237.109 208.636 237.775C209.565 238.44 209.814 240.09 208.816 240.638C209.15 240.739 209.435 240.959 209.618 241.257C209.801 241.555 209.868 241.909 209.807 242.253C211 242.017 212.31 241.823 213.363 242.419C214.417 243.015 214.819 244.762 213.8 245.414C214.394 245.644 214.903 246.051 215.257 246.581C215.61 247.111 215.792 247.737 215.776 248.374C215.712 249.645 215.238 250.862 214.424 251.84C211.429 255.861 206.147 257.483 202.674 261.102C201.533 262.367 200.509 263.734 199.617 265.185L189.558 280.491C186.362 285.344 183.083 290.314 178.522 293.933C177.34 294.971 175.933 295.719 174.411 296.117C173.649 296.309 172.85 296.299 172.093 296.089C171.335 295.879 170.646 295.475 170.092 294.917C169.087 293.774 168.934 292.144 168.837 290.612C168.671 288.034 169.115 285.372 168.941 282.772Z" fill="#EE8E9E"/>
<path d="M135.257 495.358C135.659 495.755 136.019 496.191 136.332 496.661C136.668 497.215 136.883 497.834 136.96 498.477C137.038 499.12 136.977 499.773 136.783 500.39C136.381 501.633 135.507 502.669 134.349 503.274C134.079 503.396 133.821 503.545 133.58 503.718C133.432 503.863 133.275 503.997 133.108 504.12C132.785 504.282 132.422 504.349 132.062 504.314C129.369 504.143 126.702 503.678 124.11 502.928C122.918 502.63 121.656 502.29 120.824 501.389C120.31 500.742 119.929 500 119.701 499.205L118.759 496.578C118.14 494.99 117.655 493.353 117.31 491.684C116.966 490.006 117.056 488.269 117.573 486.637C117.807 486.929 117.93 487.295 117.92 487.67C118.197 489.438 118.891 491.116 119.944 492.564C120.164 492.927 120.43 493.26 120.734 493.555C121.423 494.084 122.238 494.426 123.098 494.547C124.754 494.906 126.438 495.122 128.131 495.191C128.365 495.223 128.604 495.195 128.824 495.108C129.096 494.957 129.301 494.71 129.4 494.415C129.642 493.743 129.642 493.007 129.4 492.335C128.942 491.053 127.687 490.214 127.091 488.994C126.641 488.093 127.258 487.101 128.173 487.864C128.994 488.636 129.769 489.455 130.495 490.318L135.257 495.358Z" fill="#303D5C"/>
<path d="M126.543 477.147C126.273 481.382 126.086 485.957 128.401 489.514C129.24 490.789 130.356 491.864 131.306 493.063C131.851 493.663 132.211 494.406 132.346 495.205C132.477 496.758 131.022 498.089 129.49 498.38C127.958 498.671 126.391 498.186 124.907 497.687C123.504 497.338 122.182 496.716 121.018 495.857C119.001 494.151 118.467 491.309 118.065 488.703L117.122 482.644C116.408 479.581 116.71 476.369 117.982 473.493L119.535 468.946C119.637 468.503 119.88 468.107 120.228 467.816C120.589 467.617 121.005 467.539 121.414 467.594C122.897 467.67 126.647 468.211 127.368 469.784C127.978 471.15 126.647 475.517 126.543 477.147Z" fill="#EE8E9E"/>
<path opacity="0.05" d="M126.543 477.147C126.273 481.382 126.086 485.957 128.401 489.514C129.24 490.789 130.356 491.864 131.306 493.063C131.851 493.663 132.211 494.406 132.346 495.205C132.477 496.758 131.022 498.089 129.49 498.38C127.958 498.671 126.391 498.186 124.907 497.687C123.504 497.338 122.182 496.716 121.018 495.857C119.001 494.151 118.467 491.309 118.065 488.703L117.122 482.644C116.408 479.581 116.71 476.369 117.982 473.493L119.535 468.946C119.637 468.503 119.88 468.107 120.228 467.816C120.589 467.617 121.005 467.539 121.414 467.594C122.897 467.67 126.647 468.211 127.368 469.784C127.978 471.15 126.647 475.517 126.543 477.147Z" fill="black"/>
<path d="M159.867 351.596C159.87 351.635 159.87 351.674 159.867 351.714C159.779 352.313 159.587 352.893 159.299 353.426C158.026 356.208 157.283 359.203 157.108 362.258C157.116 363.013 157.013 363.765 156.803 364.49C156.492 365.181 156.111 365.838 155.666 366.452C154.314 368.649 154.002 371.304 153.552 373.821C152.971 377.11 152.108 380.343 150.973 383.484C149.427 387.769 147.347 392.15 148.054 396.656C148.319 397.715 148.454 398.802 148.457 399.893C148.259 401.099 147.828 402.256 147.188 403.297C146.67 404.323 146.208 405.374 145.801 406.451C145.351 407.602 144.949 408.78 144.595 409.973C144.179 411.421 143.902 413.141 144.859 414.305C145.156 414.59 145.419 414.909 145.642 415.255C145.822 415.786 145.822 416.361 145.642 416.891C145.092 419.202 144.505 421.513 143.881 423.823C143.396 425.626 142.883 427.414 142.356 429.203C138.46 442.284 134.037 455.234 131.431 468.634C131.056 470.561 128.582 471.94 126.668 472.363C125.705 472.569 124.706 472.544 123.754 472.29C122.802 472.036 121.924 471.559 121.192 470.901C121.06 470.783 120.935 470.651 120.817 470.526C118.807 468.363 118.509 465.043 118.662 462.048C119.355 448.26 126.287 435.636 129.587 422.236C130.78 417.391 131.5 412.441 131.736 407.456C132.505 390.819 132.817 373.225 128.11 357.232C127.133 353.904 125.975 350.147 127.736 347.166C128.845 345.28 130.904 344.164 132.942 343.36C137.099 341.74 141.537 340.967 145.996 341.086C150.456 341.205 154.846 342.214 158.91 344.053C158.917 344.387 158.903 344.72 158.869 345.052C158.692 346.602 158.873 348.171 159.396 349.641C159.665 350.26 159.824 350.922 159.867 351.596Z" fill="#303D5C"/>
<path d="M102.87 481.41L101.989 484.613C101.52 486.539 100.894 488.424 100.118 490.249C99.4538 491.474 98.8972 492.754 98.4538 494.075C98.2066 495.152 98.111 496.258 98.1695 497.361C98.1513 498.416 98.3035 499.467 98.6201 500.474C99.0351 501.466 99.6527 502.361 100.433 503.101C101.214 503.841 102.141 504.41 103.154 504.772C105.184 505.486 107.311 505.886 109.462 505.957C110.013 506.034 110.573 506.02 111.119 505.915C111.704 505.747 112.249 505.462 112.72 505.077C115.646 502.935 117.15 498.983 117.414 495.372C117.338 494.529 117.173 493.697 116.921 492.89C116.693 492.585 114.481 493.833 115.431 494.879C116.817 496.418 112.734 495.621 110.655 495.489C109.741 495.411 108.835 495.263 107.944 495.046L104.575 494.352C103.473 494.117 102.204 493.735 101.802 492.682C101.4 491.628 102.26 490.366 102.925 489.34C104.686 486.616 105.143 483.282 105.552 480.065C105.629 479.434 106.419 475.337 104.79 476.599C104.231 477.195 103.841 477.93 103.66 478.727C103.362 479.594 103.112 480.502 102.87 481.41Z" fill="#303D5C"/>
<path opacity="0.05" d="M144.824 414.312C143.867 413.148 144.131 411.428 144.567 409.98C144.72 409.439 144.893 408.905 145.073 408.371L131.847 403.893C131.798 405.085 131.743 406.264 131.687 407.442C131.457 412.429 130.739 417.382 129.545 422.229C126.238 435.622 119.299 448.246 118.62 462.027C118.46 465.202 118.8 468.752 121.15 470.887C121.881 471.546 122.758 472.022 123.708 472.278C124.659 472.533 125.657 472.56 126.62 472.356C128.54 471.933 131.008 470.547 131.389 468.62C134.009 455.22 138.411 442.277 142.314 429.182C143.53 425.12 144.625 421.025 145.6 416.898C145.78 416.37 145.78 415.797 145.6 415.269C145.383 414.918 145.122 414.597 144.824 414.312Z" fill="black"/>
<path d="M108.277 466.88C107.23 468.682 105.636 470.277 105.393 472.342C105.248 473.583 105.629 474.831 105.622 476.086C105.571 477.124 105.387 478.151 105.074 479.143C103.785 483.797 102.301 488.386 100.624 492.91C100.348 493.494 100.226 494.138 100.27 494.782C100.437 495.843 101.47 496.543 102.454 496.966C105.608 498.311 109.157 498.221 112.582 498.082C113.578 498.123 114.565 497.882 115.431 497.389C116.658 496.55 116.963 494.893 117.039 493.41C117.275 489.112 116.547 484.793 117.039 480.522C117.213 478.963 117.539 477.431 117.781 475.885C118.121 473.736 118.294 471.476 117.587 469.417C117.002 467.939 116.182 466.565 115.161 465.348C114.259 464.029 113.119 462.891 111.799 461.992C111.397 461.757 110.253 461.022 109.844 461.479C109.636 461.715 109.726 462.346 109.698 462.637C109.644 463.085 109.566 463.529 109.462 463.968C109.209 464.991 108.81 465.971 108.277 466.88Z" fill="#EE8E9E"/>
<path opacity="0.05" d="M133.69 356.961C133.073 357.8 133.198 358.965 133.448 359.977C133.885 361.807 134.619 363.561 135.216 365.343C136.191 368.541 136.951 371.802 137.489 375.103C138.044 378.084 139.222 381.405 138.744 384.406C142.36 391.288 144.737 398.752 145.766 406.458C146.037 408.434 141.649 410.985 141.732 412.974C141.898 416.94 145.059 417.258 142.73 420.42C142.612 420.579 143.604 424.121 143.472 424.274C142.522 425.418 141.316 426.354 140.297 427.4C138.983 428.889 137.858 430.536 136.949 432.301C130.918 443.199 122.197 455.552 124.886 467.719C124.941 468.157 124.86 468.601 124.654 468.991C124.449 469.382 124.128 469.7 123.736 469.902C122.939 470.285 122.068 470.487 121.185 470.491H120.769C118.758 468.329 118.46 465.008 118.613 462.013C119.306 448.225 126.238 435.601 129.538 422.201C130.731 417.356 131.451 412.406 131.687 407.422C132.456 390.784 132.768 373.19 128.061 357.197C127.084 353.87 125.926 350.112 127.687 347.131C128.796 345.246 130.855 344.13 132.893 343.326C137.05 341.706 141.488 340.933 145.947 341.052C150.407 341.171 154.797 342.18 158.862 344.019C158.868 344.352 158.854 344.685 158.82 345.017C158.644 346.567 158.824 348.137 159.347 349.606C159.637 350.235 159.814 350.912 159.867 351.603C159.867 351.603 160.102 348.92 160.096 348.962C154.723 349.731 149.052 353.246 143.631 354.043C140.821 354.343 138.052 354.952 135.375 355.859C134.723 356.065 134.14 356.446 133.69 356.961Z" fill="black"/>
<path d="M96.263 327.444C95.5374 329.754 94.8973 332.088 94.3427 334.445C94.0959 335.26 94.0297 336.119 94.1486 336.962C94.3219 337.752 94.8418 338.459 94.8973 339.263C95.0221 340.511 94.1555 341.613 93.6772 342.771C92.4571 345.717 93.7604 349.045 95.0637 351.963L98.8903 360.629L102.038 367.741C102.973 369.855 103.902 371.97 104.81 374.098C108.901 383.808 112.24 393.818 114.8 404.039C114.886 404.502 115.06 404.944 115.313 405.342C115.847 406.035 116.81 406.257 117.587 406.687C119.944 407.976 120.214 411.844 118.058 413.453C118.502 418.659 114.592 423.685 112.588 428.51C107.958 439.601 108.797 452.079 107.209 464.003L109.005 462.949C110.731 463.739 110.668 466.187 111.597 467.843C112.984 470.332 116.394 470.679 119.223 470.492C120.104 470.487 120.973 470.286 121.767 469.902C122.16 469.701 122.481 469.383 122.687 468.992C122.893 468.601 122.973 468.157 122.918 467.719C120.235 455.552 128.949 443.199 134.987 432.302C135.894 430.536 137.016 428.89 138.328 427.4C139.354 426.319 140.553 425.411 141.51 424.274C144.172 421.078 144.512 416.572 144.331 412.413C143.909 402.632 141.328 393.066 136.775 384.399C137.261 381.405 136.082 378.084 135.527 375.103C134.987 371.803 134.22 368.544 133.233 365.349C132.637 363.554 131.909 361.807 131.465 359.977C131.222 358.965 131.091 357.8 131.708 356.961C132.164 356.444 132.754 356.062 133.413 355.859C136.09 354.952 138.859 354.343 141.669 354.043L160.269 351.374C160.865 347.554 161.475 343.298 161.059 339.457C160.612 335.899 159.13 332.549 156.798 329.825C154.465 327.1 151.384 325.12 147.936 324.13C147.125 323.915 146.175 323.777 145.51 324.289C129.098 321.068 112.13 322.154 96.263 327.444Z" fill="#303D5C"/>
<path d="M113.13 226.988C113.401 228.804 113.118 230.659 112.318 232.312C111.778 233.214 111.073 234.007 110.239 234.648C108.44 236.094 106.35 237.132 104.111 237.691C102.794 238.024 101.338 238.246 100.443 239.293C99.1402 240.866 100.014 243.251 101.137 244.97C103.064 247.965 105.74 250.676 109.171 251.611C111.944 252.36 114.835 251.903 117.636 252.388C119.667 252.741 121.58 253.58 123.583 254.058C126.434 254.711 129.403 254.641 132.22 253.855C135.037 253.069 137.613 251.593 139.715 249.559C136.734 247.272 133.642 244.839 132.089 241.414C130.996 238.963 130.791 236.208 131.507 233.622C132.2 231.085 133.829 228.617 133.33 225.997C132.831 223.376 130.28 221.622 127.784 220.749C125.493 220.053 123.139 219.586 120.755 219.355C119.445 219.175 111.126 217.338 110.606 218.246C110.315 218.759 112.041 221.796 112.256 222.468C112.763 223.925 113.057 225.447 113.13 226.988Z" fill="#EE8E9E"/>
<path d="M123.618 233.061C132.937 233.061 140.491 225.506 140.491 216.187C140.491 206.869 132.937 199.314 123.618 199.314C114.299 199.314 106.745 206.869 106.745 216.187C106.745 225.506 114.299 233.061 123.618 233.061Z" fill="#EE8E9E"/>
<path d="M114.703 244.076L126.148 246.003C128.961 246.575 131.825 246.863 134.696 246.863C136.263 246.707 137.842 246.707 139.41 246.863C140.491 247.043 141.524 247.452 142.605 247.591C143.943 247.757 145.302 247.501 146.64 247.674C149.122 247.993 151.167 249.712 153.052 251.355C155.264 253.282 157.642 255.514 157.815 258.46C157.846 258.795 157.799 259.132 157.676 259.445C157.459 259.798 157.168 260.101 156.824 260.332C154.744 262.058 153.545 264.63 152.047 266.904C150.506 269.25 148.585 271.323 146.363 273.039C145.864 272.72 144.914 273.559 145.129 274.114C145.344 274.668 145.891 275.049 146.072 275.611C146.481 276.907 144.879 277.864 144.214 279.077C143.548 280.29 143.888 281.767 143.819 283.146C143.735 284.665 143.125 286.113 142.938 287.618C142.474 291.132 144.214 294.834 142.987 298.155C144.491 297.968 145.85 299.264 146.273 300.713C146.695 302.162 146.425 303.721 146.141 305.205C147.107 305.783 147.897 306.615 148.424 307.609C148.952 308.604 149.198 309.724 149.136 310.848C149.077 310.981 149.048 311.125 149.053 311.27C149.057 311.415 149.093 311.557 149.16 311.686C149.227 311.815 149.321 311.928 149.437 312.016C149.553 312.103 149.687 312.164 149.829 312.193C150.872 312.628 151.763 313.362 152.389 314.304C153.015 315.245 153.347 316.352 153.344 317.482C153.297 317.859 153.333 318.243 153.448 318.605C153.65 318.952 153.933 319.244 154.272 319.458C155.041 320.076 155.661 320.859 156.086 321.75C156.511 322.64 156.73 323.615 156.727 324.601C156.727 325.939 156.172 327.374 154.987 327.978C152.56 329.211 149.961 329.69 147.299 330.265C144.846 330.845 142.362 331.287 139.86 331.589C137.555 331.778 135.241 331.85 132.928 331.804L117.621 331.742C113.316 331.742 109.012 331.742 104.72 331.416C100.714 331.146 96.6166 330.646 92.7345 331.7C92.2493 330.875 93.0257 329.925 93.504 329.101C94.0524 327.976 94.3504 326.746 94.3775 325.496L95.348 315.298C95.5327 313.896 95.5583 312.478 95.4243 311.07C95.2163 309.565 94.6478 308.144 94.3567 306.654C93.8021 303.798 94.3082 300.845 94.1764 297.933C93.9785 295.354 93.5304 292.8 92.8385 290.307L89.8022 277.829C89.3169 275.826 89.0604 273.497 88.3117 271.59C85.9779 265.582 83.5308 259.639 80.9704 253.76C80.8778 253.503 80.8422 253.228 80.8661 252.955C80.8901 252.682 80.973 252.418 81.1091 252.18L83.6394 247.646C84.3163 246.358 85.0904 245.122 85.9548 243.951C88.0918 241.249 91.118 239.392 94.4953 238.71C97.8773 238.049 101.384 238.568 104.429 240.18C105.608 240.811 106.703 241.566 107.895 242.19C109.94 243.161 112.436 244.228 114.703 244.076Z" fill="#037EF3"/>
<path d="M155.312 255.188L159.298 260.506C159.665 260.957 159.977 261.45 160.227 261.975C160.823 263.362 160.498 264.998 160.817 266.488C161.065 267.442 161.46 268.352 161.988 269.185C163.487 271.82 165.181 274.338 167.056 276.72C167.922 277.93 168.989 278.983 170.21 279.833C170.821 280.255 171.517 280.542 172.249 280.672C172.981 280.803 173.732 280.774 174.452 280.588C173.85 280.823 173.356 281.272 173.066 281.85C171.548 284.859 171.437 288.422 172.082 291.722C172.263 292.854 172.638 293.947 173.191 294.952C173.744 295.966 174.645 296.747 175.728 297.15C175.66 297.652 175.49 298.136 175.228 298.571C174.967 299.005 174.62 299.382 174.208 299.678C173.796 299.974 173.327 300.183 172.832 300.291C172.336 300.4 171.824 300.407 171.326 300.311C170.541 300.076 169.803 299.707 169.142 299.222L162.737 295.063C161.668 294.423 160.669 293.672 159.756 292.824C158.557 291.631 157.725 290.12 156.56 288.893C154.577 286.814 151.666 285.538 150.266 283.015C149.385 281.434 149.233 279.549 148.692 277.843C148.338 276.713 147.819 275.646 147.479 274.509C146.425 271.001 147.188 267.154 148.789 263.861C150.39 260.568 152.941 257.989 155.312 255.188Z" fill="#037EF3"/>
<path d="M140.29 206.565C138.729 204.143 136.714 202.046 134.356 200.389C131.202 198.039 127.576 196.084 123.646 195.862C122.002 195.778 120.36 196.045 118.828 196.645C118.752 191.883 117.573 188.708 114.592 189.186C109.046 190.08 102.877 192.216 100.728 197.415C99.1263 201.345 100.367 205.768 100.776 209.99C100.931 211.104 100.891 212.237 100.658 213.338C100.201 215.12 98.9391 216.562 97.7191 217.941C96.0241 219.693 94.6011 221.688 93.4973 223.861C92.499 226.08 92.1802 228.714 93.2131 230.932C93.5644 231.502 93.8 232.136 93.9063 232.797C93.9756 234.239 92.4644 235.154 91.3552 236.076C87.1958 239.542 87.3691 245.781 87.3345 251.209C87.2706 262.277 84.8135 273.2 80.1318 283.23C81.8864 284.118 83.8681 284.457 85.8183 284.203C87.7685 283.948 89.5966 283.111 91.0641 281.802C90.4876 284.266 89.6558 286.664 88.5823 288.956C92.1039 290.661 96.3534 287.86 98.1211 284.366C99.8889 280.873 100.097 276.81 101.352 273.102C102.606 269.393 104.818 266.169 105.795 262.433C106.107 261.199 106.301 259.882 107.057 258.856C107.694 258.113 108.442 257.475 109.275 256.963C112.908 254.357 107.556 234.606 108.977 230.364C111.057 230.828 114.974 220.659 117.185 210.26C118.727 210.792 120.372 210.956 121.989 210.739C122.551 210.617 123.128 210.577 123.701 210.621C124.234 210.73 124.741 210.937 125.199 211.231C126.835 212.235 128.545 213.113 130.315 213.858C133.975 215.245 137.996 215.044 141.899 214.849C142.427 211.984 141.853 209.025 140.29 206.565Z" fill="#303D5C"/>
<g opacity="0.1">
<path opacity="0.1" d="M82.1145 283.23C86.8105 273.214 89.2796 262.299 89.3518 251.237C89.3864 245.83 89.2062 239.549 93.3725 236.104C94.4817 235.182 95.9929 234.267 95.9236 232.825C95.8145 232.165 95.5792 231.531 95.2304 230.96C94.1975 228.756 94.5371 226.107 95.5077 223.889C96.6117 221.714 98.0373 219.719 99.7364 217.969C100.95 216.583 102.218 215.148 102.669 213.366C102.901 212.265 102.943 211.133 102.793 210.018C102.378 205.796 101.144 201.373 102.745 197.442C104.825 192.41 110.641 190.254 116.048 189.311C115.578 189.161 115.078 189.128 114.592 189.214C109.046 190.108 102.877 192.243 100.728 197.442C99.1263 201.373 100.367 205.796 100.776 210.018C100.931 211.132 100.891 212.265 100.658 213.366C100.201 215.148 98.9391 216.589 97.7191 217.969C96.0241 219.721 94.6011 221.716 93.4973 223.889C92.499 226.107 92.1802 228.742 93.2131 230.96C93.5644 231.53 93.8 232.164 93.9063 232.825C93.9756 234.267 92.4644 235.182 91.3552 236.104C87.1958 239.57 87.3691 245.809 87.3345 251.237C87.2666 262.296 84.8096 273.209 80.1318 283.23C81.7812 284.082 83.6444 284.431 85.4905 284.235C84.3107 284.121 83.1641 283.78 82.1145 283.23Z" fill="black"/>
<path opacity="0.1" d="M90.5647 288.928C91.6311 286.635 92.4558 284.237 93.0256 281.774C92.3138 282.425 91.5045 282.96 90.6271 283.361C90.0862 285.263 89.3906 287.118 88.5474 288.907C89.5614 289.389 90.7029 289.535 91.8055 289.323C91.3769 289.244 90.96 289.111 90.5647 288.928Z" fill="black"/>
<path opacity="0.1" d="M120.81 196.645C121.841 196.244 122.924 195.992 124.027 195.897H123.646C122.691 195.847 121.733 195.919 120.796 196.111C120.803 196.264 120.81 196.451 120.81 196.645Z" fill="black"/>
<path opacity="0.1" d="M132.297 213.837C130.53 213.092 128.822 212.214 127.188 211.21C126.728 210.916 126.218 210.709 125.684 210.6C125.16 210.553 124.631 210.585 124.117 210.697C124.493 210.834 124.855 211.006 125.198 211.21C126.835 212.214 128.545 213.092 130.314 213.837C133.07 214.746 135.973 215.123 138.869 214.946C136.632 214.946 134.41 214.571 132.297 213.837Z" fill="black"/>
<path opacity="0.1" d="M119.168 210.239C119.168 210.392 119.105 210.544 119.071 210.697C119.901 210.821 120.744 210.844 121.58 210.766C120.759 210.681 119.95 210.504 119.168 210.239Z" fill="black"/>
</g>
<path d="M84.0486 288.491C84.145 289.384 84.0461 290.288 83.7589 291.139C83.4716 291.99 83.0027 292.768 82.3848 293.42C81.6821 294.098 80.8917 294.678 80.0348 295.146C79.2079 295.713 78.2568 296.072 77.2618 296.193C75.9207 296.15 74.6465 295.597 73.6986 294.647C70.7593 292.068 69.2897 288.249 67.931 284.581C66.1355 279.729 64.347 274.828 63.5775 269.705C62.7526 264.214 63.1061 258.53 61.5325 253.199C62.9189 250.426 63.8201 247.334 65.4076 244.644C66.4151 243.042 67.307 241.369 68.0765 239.639C69.5507 235.957 69.7171 231.88 68.548 228.09C68.826 227.909 69.1544 227.821 69.4858 227.838C69.8172 227.856 70.1345 227.978 70.3919 228.187C70.8958 228.62 71.2781 229.177 71.5011 229.802C72.4165 231.941 72.7972 234.27 72.6103 236.589C72.4916 237.147 72.5573 237.728 72.7974 238.246C73.0122 238.511 73.289 238.719 73.6033 238.852C73.9177 238.985 74.2599 239.039 74.5998 239.008C76.0133 238.939 77.4115 238.685 78.7592 238.253C82.947 237.184 87.2844 236.826 91.5909 237.192C92.4586 237.218 93.3113 237.426 94.0934 237.802C94.4801 237.995 94.8055 238.292 95.0332 238.659C95.2609 239.026 95.382 239.45 95.3828 239.882L85.1231 241.386C84.3507 241.429 83.605 241.684 82.9671 242.121C82.6602 242.353 82.4574 242.696 82.4028 243.077C82.3483 243.457 82.4465 243.844 82.676 244.152C82.8927 244.329 83.1247 244.487 83.3692 244.624C83.6322 244.823 83.8441 245.082 83.9874 245.379C84.1306 245.676 84.2011 246.003 84.1929 246.333C84.1848 246.663 84.0983 246.986 83.9406 247.276C83.7829 247.566 83.5585 247.814 83.286 248C83.0278 248.119 82.7931 248.283 82.5928 248.485C82.1768 249.046 82.7314 249.788 82.9117 250.468C82.9894 250.969 82.9131 251.482 82.6927 251.939C82.4723 252.395 82.1184 252.774 81.6777 253.026C80.7879 253.514 79.8185 253.84 78.8147 253.989C76.8001 254.453 74.8375 255.12 72.9569 255.979C72.3446 256.197 71.8129 256.596 71.4318 257.123C70.9257 257.982 71.2585 259.064 71.6051 259.999L74.281 267.195C74.6969 268.325 75.1198 269.455 75.6674 270.543C76.3606 271.93 77.1856 273.275 77.8857 274.703C78.5859 276.131 79.0434 277.372 79.5564 278.73C80.8944 282.398 83.591 284.616 84.0486 288.491Z" fill="#EE8E9E"/>
<path d="M208.608 241.809H176.629V272.769H208.608V241.809Z" fill="url(#paint12_linear)"/>
<path d="M208.06 242.343H177.184V272.235H208.06V242.343Z" fill="#7CFCFF"/>
<path d="M202.708 239.986C202.138 240.41 201.726 241.013 201.537 241.698C201.493 241.84 201.496 241.991 201.545 242.131C201.593 242.271 201.685 242.391 201.807 242.475C201.961 242.523 202.125 242.523 202.279 242.475C203.046 242.339 203.764 242.001 204.358 241.497C204.123 241.622 203.913 241.792 203.741 241.996C203.657 242.1 203.604 242.226 203.589 242.358C203.574 242.491 203.598 242.625 203.658 242.745C203.743 242.848 203.849 242.933 203.968 242.994C204.087 243.055 204.218 243.09 204.351 243.099C205.34 243.278 206.357 243.231 207.325 242.96C206.874 243.128 206.457 243.374 206.091 243.688C205.91 243.848 205.766 244.045 205.669 244.267C205.572 244.488 205.524 244.728 205.53 244.97C205.531 245.061 205.551 245.151 205.589 245.233C205.627 245.316 205.683 245.389 205.752 245.449C205.852 245.512 205.966 245.553 206.084 245.566C207.002 245.728 207.94 245.728 208.857 245.566C209.094 245.557 209.324 245.489 209.528 245.368C209.731 245.247 209.901 245.077 210.022 244.873C210.069 244.643 210.069 244.407 210.023 244.177C209.976 243.947 209.884 243.729 209.752 243.535C209.26 242.477 209.022 241.319 209.058 240.152C209.088 239.917 209.055 239.677 208.961 239.459C208.809 239.247 208.593 239.09 208.344 239.008C207.367 238.579 206.036 237.983 204.948 238.315C204.099 238.719 203.338 239.287 202.708 239.986Z" fill="#EE8E9E"/>
<defs>
<linearGradient id="paint0_linear" x1="292.447" y1="229.095" x2="292.447" y2="198.136" gradientUnits="userSpaceOnUse">
<stop stop-color="#808080" stop-opacity="0.25"/>
<stop offset="0.54" stop-color="#808080" stop-opacity="0.12"/>
<stop offset="1" stop-color="#808080" stop-opacity="0.1"/>
</linearGradient>
<linearGradient id="paint1_linear" x1="16872.1" y1="10123.3" x2="16872.1" y2="8740.61" gradientUnits="userSpaceOnUse">
<stop stop-color="#808080" stop-opacity="0.25"/>
<stop offset="0.54" stop-color="#808080" stop-opacity="0.12"/>
<stop offset="1" stop-color="#808080" stop-opacity="0.1"/>
</linearGradient>
<linearGradient id="paint2_linear" x1="22851.1" y1="14934.5" x2="22851.1" y2="13551.8" gradientUnits="userSpaceOnUse">
<stop stop-color="#808080" stop-opacity="0.25"/>
<stop offset="0.54" stop-color="#808080" stop-opacity="0.12"/>
<stop offset="1" stop-color="#808080" stop-opacity="0.1"/>
</linearGradient>
<linearGradient id="paint3_linear" x1="9577.46" y1="7910.42" x2="9577.46" y2="6527.76" gradientUnits="userSpaceOnUse">
<stop stop-color="#808080" stop-opacity="0.25"/>
<stop offset="0.54" stop-color="#808080" stop-opacity="0.12"/>
<stop offset="1" stop-color="#808080" stop-opacity="0.1"/>
</linearGradient>
<linearGradient id="paint4_linear" x1="12572.2" y1="9936.2" x2="12572.2" y2="8553.54" gradientUnits="userSpaceOnUse">
<stop stop-color="#808080" stop-opacity="0.25"/>
<stop offset="0.54" stop-color="#808080" stop-opacity="0.12"/>
<stop offset="1" stop-color="#808080" stop-opacity="0.1"/>
</linearGradient>
<linearGradient id="paint5_linear" x1="24614" y1="14924.4" x2="24614" y2="13541.7" gradientUnits="userSpaceOnUse">
<stop stop-color="#808080" stop-opacity="0.25"/>
<stop offset="0.54" stop-color="#808080" stop-opacity="0.12"/>
<stop offset="1" stop-color="#808080" stop-opacity="0.1"/>
</linearGradient>
<linearGradient id="paint6_linear" x1="27260.5" y1="7929.09" x2="27260.5" y2="6546.44" gradientUnits="userSpaceOnUse">
<stop stop-color="#808080" stop-opacity="0.25"/>
<stop offset="0.54" stop-color="#808080" stop-opacity="0.12"/>
<stop offset="1" stop-color="#808080" stop-opacity="0.1"/>
</linearGradient>
<linearGradient id="paint7_linear" x1="27097.1" y1="12423.8" x2="27097.1" y2="11041.1" gradientUnits="userSpaceOnUse">
<stop stop-color="#808080" stop-opacity="0.25"/>
<stop offset="0.54" stop-color="#808080" stop-opacity="0.12"/>
<stop offset="1" stop-color="#808080" stop-opacity="0.1"/>
</linearGradient>
<linearGradient id="paint8_linear" x1="28240.6" y1="12740.3" x2="28240.6" y2="11357.7" gradientUnits="userSpaceOnUse">
<stop stop-color="#808080" stop-opacity="0.25"/>
<stop offset="0.54" stop-color="#808080" stop-opacity="0.12"/>
<stop offset="1" stop-color="#808080" stop-opacity="0.1"/>
</linearGradient>
<linearGradient id="paint9_linear" x1="23419.2" y1="14430.9" x2="23419.2" y2="13048.2" gradientUnits="userSpaceOnUse">
<stop stop-color="#808080" stop-opacity="0.25"/>
<stop offset="0.54" stop-color="#808080" stop-opacity="0.12"/>
<stop offset="1" stop-color="#808080" stop-opacity="0.1"/>
</linearGradient>
<linearGradient id="paint10_linear" x1="23582.6" y1="10157.8" x2="23582.6" y2="8775.11" gradientUnits="userSpaceOnUse">
<stop stop-color="#808080" stop-opacity="0.25"/>
<stop offset="0.54" stop-color="#808080" stop-opacity="0.12"/>
<stop offset="1" stop-color="#808080" stop-opacity="0.1"/>
</linearGradient>
<linearGradient id="paint11_linear" x1="18928.6" y1="179579" x2="53284.1" y2="179579" gradientUnits="userSpaceOnUse">
<stop stop-color="#808080" stop-opacity="0.25"/>
<stop offset="0.54" stop-color="#808080" stop-opacity="0.12"/>
<stop offset="1" stop-color="#808080" stop-opacity="0.1"/>
</linearGradient>
<linearGradient id="paint12_linear" x1="9062.22" y1="12423.8" x2="9062.22" y2="11041.1" gradientUnits="userSpaceOnUse">
<stop stop-color="#808080" stop-opacity="0.25"/>
<stop offset="0.54" stop-color="#808080" stop-opacity="0.12"/>
<stop offset="1" stop-color="#808080" stop-opacity="0.1"/>
</linearGradient>
</defs>
</svg>
