<svg width="877" height="606" viewBox="0 0 877 606" fill="none" xmlns="http://www.w3.org/2000/svg">
<g clip-path="url(#clip0)">
<path d="M746.417 485.333C746.417 485.333 737.174 479.234 728.014 483.573C728.014 483.573 730.835 489.003 742.431 488.491L746.417 485.333Z" fill="#6C63FF"/>
<path d="M747.59 485.656C747.59 485.656 750.402 496.365 743.348 503.652C743.348 503.652 739.107 499.238 743.348 488.424L747.59 485.656Z" fill="#6C63FF"/>
<path d="M759.081 475.376C759.081 475.376 758.397 466.269 737.829 469.292C737.829 469.292 737.731 475.165 744.95 477.948C752.17 480.73 755.479 478.384 759.081 475.376Z" fill="#6C63FF"/>
<path d="M760.375 475.316C760.375 475.316 769.068 478.106 761.315 497.396C761.315 497.396 755.577 496.117 754.546 488.439C753.516 480.761 756.569 478.113 760.375 475.316Z" fill="#6C63FF"/>
<path d="M771.986 462.396C771.986 462.396 773.166 447.408 752.147 448.942C752.147 448.942 750.643 462.479 768.278 465.998L771.986 462.396Z" fill="#6C63FF"/>
<path d="M785.876 445.475C785.876 445.475 782.996 428.487 761.984 433.548C761.984 433.548 761.909 448.235 782.447 449.521L785.876 445.475Z" fill="#6C63FF"/>
<path d="M772.557 462.283C772.557 462.283 787.463 460.335 787.019 481.4C787.019 481.4 773.55 483.596 769.151 466.171L772.557 462.283Z" fill="#6C63FF"/>
<path d="M781.665 64.0959H59.0497C57.3424 64.0959 55.705 64.7741 54.4978 65.9814C53.2905 67.1886 52.6123 68.826 52.6123 70.5333V89.289H788.102V70.5333C788.102 68.826 787.424 67.1886 786.217 65.9814C785.009 64.7741 783.372 64.0959 781.665 64.0959Z" fill="#3F3D56"/>
<path d="M52.6123 89.289V511.361C52.6123 514.803 53.9798 518.105 56.4141 520.539C58.8483 522.973 62.1499 524.341 65.5924 524.341H775.122C778.564 524.341 781.866 522.973 784.3 520.539C786.734 518.105 788.102 514.803 788.102 511.361V89.289H52.6123Z" fill="white"/>
<path opacity="0.8" d="M64.2613 79.5126C65.9227 79.5126 67.2694 78.1658 67.2694 76.5045C67.2694 74.8431 65.9227 73.4963 64.2613 73.4963C62.6 73.4963 61.2532 74.8431 61.2532 76.5045C61.2532 78.1658 62.6 79.5126 64.2613 79.5126Z" fill="#FA5959"/>
<path opacity="0.8" d="M72.5337 79.5126C74.1951 79.5126 75.5418 78.1658 75.5418 76.5045C75.5418 74.8431 74.1951 73.4963 72.5337 73.4963C70.8724 73.4963 69.5256 74.8431 69.5256 76.5045C69.5256 78.1658 70.8724 79.5126 72.5337 79.5126Z" fill="#FED253"/>
<path opacity="0.8" d="M80.8061 79.5126C82.4675 79.5126 83.8142 78.1658 83.8142 76.5045C83.8142 74.8431 82.4675 73.4963 80.8061 73.4963C79.1448 73.4963 77.798 74.8431 77.798 76.5045C77.798 78.1658 79.1448 79.5126 80.8061 79.5126Z" fill="#8CCF4D"/>
<path opacity="0.05" d="M712.079 159.664H120.98V419.583H712.079V159.664Z" fill="black"/>
<path d="M707.567 161.635H125.492V415.822H707.567V161.635Z" fill="#E6E6E6"/>
<path d="M284.171 227.054C272.718 227.054 261.523 230.45 252 236.813C242.477 243.176 235.055 252.22 230.672 262.801C226.29 273.382 225.143 285.025 227.377 296.258C229.612 307.491 235.127 317.809 243.225 325.907C251.323 334.005 261.641 339.521 272.874 341.755C284.107 343.989 295.75 342.842 306.331 338.46C316.912 334.077 325.956 326.655 332.319 317.132C338.682 307.609 342.078 296.414 342.078 284.961C342.078 277.356 340.58 269.827 337.67 262.801C334.76 255.775 330.495 249.392 325.117 244.015C319.74 238.638 313.357 234.372 306.331 231.462C299.306 228.552 291.776 227.054 284.171 227.054ZM294.557 286.352V313.771H274.086V286.352C271.254 284.208 269.166 281.228 268.118 277.833C267.07 274.439 267.115 270.8 268.245 267.432C269.376 264.064 271.537 261.137 274.421 259.062C277.306 256.988 280.769 255.872 284.322 255.872C287.875 255.872 291.338 256.988 294.222 259.062C297.107 261.137 299.267 264.064 300.398 267.432C301.529 270.8 301.573 274.439 300.525 277.833C299.477 281.228 297.39 284.208 294.557 286.352Z" fill="#B0B0B0"/>
<path opacity="0.05" d="M284.171 227.054C272.718 227.054 261.523 230.45 252 236.813C242.477 243.176 235.055 252.22 230.672 262.801C226.29 273.382 225.143 285.025 227.377 296.258C229.612 307.491 235.127 317.809 243.225 325.907C251.323 334.005 261.641 339.521 272.874 341.755C284.107 343.989 295.75 342.842 306.331 338.46C316.912 334.077 325.956 326.655 332.319 317.132C338.682 307.609 342.078 296.414 342.078 284.961C342.078 277.356 340.58 269.827 337.67 262.801C334.76 255.775 330.495 249.392 325.117 244.015C319.74 238.638 313.357 234.372 306.331 231.462C299.306 228.552 291.776 227.054 284.171 227.054ZM294.557 286.352V313.771H274.086V286.352C271.254 284.208 269.166 281.228 268.118 277.833C267.07 274.439 267.115 270.8 268.245 267.432C269.376 264.064 271.537 261.137 274.421 259.062C277.306 256.988 280.769 255.872 284.322 255.872C287.875 255.872 291.338 256.988 294.222 259.062C297.107 261.137 299.267 264.064 300.398 267.432C301.529 270.8 301.573 274.439 300.525 277.833C299.477 281.228 297.39 284.208 294.557 286.352Z" fill="black"/>
<path d="M284.171 210.509C269.446 210.509 255.052 214.876 242.808 223.057C230.565 231.238 221.022 242.865 215.387 256.47C209.752 270.074 208.278 285.043 211.15 299.486C214.023 313.928 221.114 327.194 231.526 337.606C241.938 348.018 255.204 355.109 269.646 357.982C284.089 360.854 299.058 359.38 312.663 353.745C326.267 348.11 337.894 338.567 346.075 326.324C354.256 314.08 358.623 299.686 358.623 284.961C358.623 265.215 350.779 246.278 336.816 232.316C322.854 218.353 303.917 210.509 284.171 210.509ZM297.52 286.751V321.999H271.199V286.751C267.555 283.993 264.87 280.161 263.521 275.795C262.173 271.43 262.23 266.751 263.684 262.419C265.139 258.087 267.917 254.322 271.626 251.654C275.336 248.986 279.79 247.551 284.359 247.551C288.929 247.551 293.382 248.986 297.092 251.654C300.802 254.322 303.58 258.087 305.034 262.419C306.488 266.751 306.545 271.43 305.197 275.795C303.849 280.161 301.163 283.993 297.52 286.751Z" fill="#FBFBFB"/>
<path d="M630.107 275.192H389.456V300.761H630.107V275.192Z" fill="white"/>
<path d="M630.107 321.818H578.217V347.387H630.107V321.818Z" fill="#037EF3"/>
<path d="M413.145 287.593H408.791L412.664 283.728C412.733 283.656 412.772 283.56 412.772 283.461C412.772 283.361 412.733 283.265 412.664 283.194C412.629 283.158 412.587 283.13 412.541 283.111C412.496 283.092 412.446 283.082 412.397 283.082C412.347 283.082 412.298 283.092 412.252 283.111C412.206 283.13 412.165 283.158 412.13 283.194L408.257 287.067V282.705C408.257 282.605 408.217 282.509 408.147 282.439C408.076 282.368 407.981 282.329 407.881 282.329C407.782 282.331 407.687 282.371 407.617 282.441C407.547 282.511 407.507 282.606 407.505 282.705V287.067L403.639 283.171C403.605 283.136 403.563 283.108 403.517 283.089C403.471 283.07 403.422 283.06 403.372 283.06C403.323 283.06 403.274 283.07 403.228 283.089C403.182 283.108 403.14 283.136 403.106 283.171C403.036 283.243 402.997 283.338 402.997 283.438C402.997 283.538 403.036 283.633 403.106 283.705L406.978 287.57H402.617C402.518 287.572 402.423 287.613 402.353 287.683C402.283 287.753 402.243 287.847 402.241 287.946C402.241 288.046 402.28 288.142 402.351 288.212C402.421 288.283 402.517 288.322 402.617 288.322H406.978L403.106 292.195C403.036 292.267 402.997 292.363 402.997 292.462C402.997 292.562 403.036 292.658 403.106 292.729C403.178 292.797 403.273 292.835 403.372 292.835C403.472 292.835 403.567 292.797 403.639 292.729L407.505 288.856V293.211C407.505 293.31 407.545 293.406 407.615 293.477C407.686 293.547 407.781 293.587 407.881 293.587C407.981 293.587 408.076 293.547 408.147 293.477C408.217 293.406 408.257 293.31 408.257 293.211V288.856L412.13 292.729C412.202 292.797 412.298 292.835 412.397 292.835C412.496 292.835 412.591 292.797 412.664 292.729C412.733 292.658 412.772 292.562 412.772 292.462C412.772 292.363 412.733 292.267 412.664 292.195L408.791 288.322H413.145C413.245 288.322 413.341 288.283 413.411 288.212C413.482 288.142 413.521 288.046 413.521 287.946C413.515 287.851 413.473 287.761 413.403 287.695C413.333 287.629 413.241 287.593 413.145 287.593Z" fill="#037EF3"/>
<path d="M428.938 287.593H424.584L428.457 283.728C428.526 283.656 428.565 283.56 428.565 283.461C428.565 283.361 428.526 283.265 428.457 283.194C428.422 283.158 428.38 283.13 428.334 283.111C428.288 283.092 428.239 283.082 428.19 283.082C428.14 283.082 428.091 283.092 428.045 283.111C427.999 283.13 427.958 283.158 427.923 283.194L424.05 287.067V282.705C424.05 282.605 424.01 282.509 423.94 282.439C423.869 282.368 423.773 282.329 423.674 282.329C423.575 282.331 423.48 282.371 423.41 282.441C423.34 282.511 423.3 282.606 423.298 282.705V287.067L419.432 283.171C419.397 283.136 419.356 283.108 419.31 283.089C419.264 283.07 419.215 283.06 419.165 283.06C419.116 283.06 419.066 283.07 419.021 283.089C418.975 283.108 418.933 283.136 418.898 283.171C418.829 283.243 418.79 283.338 418.79 283.438C418.79 283.538 418.829 283.633 418.898 283.705L422.771 287.57H418.409C418.31 287.572 418.216 287.613 418.146 287.683C418.076 287.753 418.035 287.847 418.033 287.946C418.033 288.046 418.073 288.142 418.144 288.212C418.214 288.283 418.31 288.322 418.409 288.322H422.771L418.898 292.195C418.829 292.267 418.79 292.363 418.79 292.462C418.79 292.562 418.829 292.658 418.898 292.729C418.971 292.797 419.066 292.835 419.165 292.835C419.264 292.835 419.36 292.797 419.432 292.729L423.298 288.856V293.211C423.298 293.31 423.337 293.406 423.408 293.477C423.478 293.547 423.574 293.587 423.674 293.587C423.773 293.587 423.869 293.547 423.94 293.477C424.01 293.406 424.05 293.31 424.05 293.211V288.856L427.923 292.729C427.995 292.797 428.09 292.835 428.19 292.835C428.289 292.835 428.384 292.797 428.457 292.729C428.526 292.658 428.565 292.562 428.565 292.462C428.565 292.363 428.526 292.267 428.457 292.195L424.584 288.322H428.938C429.038 288.322 429.133 288.283 429.204 288.212C429.274 288.142 429.314 288.046 429.314 287.946C429.308 287.851 429.266 287.761 429.196 287.695C429.126 287.629 429.034 287.593 428.938 287.593Z" fill="#037EF3"/>
<path d="M444.731 287.593H440.376L444.249 283.728C444.319 283.656 444.357 283.56 444.357 283.461C444.357 283.361 444.319 283.265 444.249 283.194C444.214 283.158 444.173 283.13 444.127 283.111C444.081 283.092 444.032 283.082 443.982 283.082C443.933 283.082 443.884 283.092 443.838 283.111C443.792 283.13 443.75 283.158 443.715 283.194L439.842 287.067V282.705C439.842 282.605 439.803 282.509 439.732 282.439C439.662 282.368 439.566 282.329 439.466 282.329C439.367 282.331 439.273 282.371 439.203 282.441C439.133 282.511 439.092 282.606 439.09 282.705V287.067L435.225 283.171C435.19 283.136 435.148 283.108 435.103 283.089C435.057 283.07 435.008 283.06 434.958 283.06C434.908 283.06 434.859 283.07 434.813 283.089C434.768 283.108 434.726 283.136 434.691 283.171C434.622 283.243 434.583 283.338 434.583 283.438C434.583 283.538 434.622 283.633 434.691 283.705L438.564 287.57H434.202C434.103 287.572 434.008 287.613 433.938 287.683C433.868 287.753 433.828 287.847 433.826 287.946C433.826 288.046 433.866 288.142 433.936 288.212C434.007 288.283 434.102 288.322 434.202 288.322H438.564L434.691 292.195C434.622 292.267 434.583 292.363 434.583 292.462C434.583 292.562 434.622 292.658 434.691 292.729C434.763 292.797 434.859 292.835 434.958 292.835C435.057 292.835 435.152 292.797 435.225 292.729L439.09 288.856V293.211C439.09 293.31 439.13 293.406 439.2 293.477C439.271 293.547 439.367 293.587 439.466 293.587C439.566 293.587 439.662 293.547 439.732 293.477C439.803 293.406 439.842 293.31 439.842 293.211V288.856L443.715 292.729C443.788 292.797 443.883 292.835 443.982 292.835C444.081 292.835 444.177 292.797 444.249 292.729C444.319 292.658 444.357 292.562 444.357 292.462C444.357 292.363 444.319 292.267 444.249 292.195L440.376 288.322H444.731C444.83 288.322 444.926 288.283 444.996 288.212C445.067 288.142 445.107 288.046 445.107 287.946C445.101 287.851 445.059 287.761 444.989 287.695C444.919 287.629 444.827 287.593 444.731 287.593Z" fill="#037EF3"/>
<path d="M507.905 287.593H503.55L507.423 283.728C507.493 283.656 507.531 283.56 507.531 283.461C507.531 283.361 507.493 283.265 507.423 283.194C507.388 283.158 507.347 283.13 507.301 283.111C507.255 283.092 507.206 283.082 507.156 283.082C507.107 283.082 507.057 283.092 507.012 283.111C506.966 283.13 506.924 283.158 506.889 283.194L503.016 287.067V282.705C503.016 282.605 502.977 282.509 502.906 282.439C502.836 282.368 502.74 282.329 502.64 282.329C502.541 282.331 502.447 282.371 502.376 282.441C502.306 282.511 502.266 282.606 502.264 282.705V287.067L498.399 283.171C498.364 283.136 498.322 283.108 498.276 283.089C498.231 283.07 498.181 283.06 498.132 283.06C498.082 283.06 498.033 283.07 497.987 283.089C497.941 283.108 497.9 283.136 497.865 283.171C497.795 283.243 497.757 283.338 497.757 283.438C497.757 283.538 497.795 283.633 497.865 283.705L501.738 287.57H497.376C497.277 287.572 497.182 287.613 497.112 287.683C497.042 287.753 497.002 287.847 497 287.946C497 288.046 497.04 288.142 497.11 288.212C497.181 288.283 497.276 288.322 497.376 288.322H501.738L497.865 292.195C497.795 292.267 497.757 292.363 497.757 292.462C497.757 292.562 497.795 292.658 497.865 292.729C497.937 292.797 498.033 292.835 498.132 292.835C498.231 292.835 498.326 292.797 498.399 292.729L502.264 288.856V293.211C502.264 293.31 502.304 293.406 502.374 293.477C502.445 293.547 502.541 293.587 502.64 293.587C502.74 293.587 502.836 293.547 502.906 293.477C502.977 293.406 503.016 293.31 503.016 293.211V288.856L506.889 292.729C506.962 292.797 507.057 292.835 507.156 292.835C507.255 292.835 507.351 292.797 507.423 292.729C507.493 292.658 507.531 292.562 507.531 292.462C507.531 292.363 507.493 292.267 507.423 292.195L503.55 288.322H507.905C508.004 288.322 508.1 288.283 508.17 288.212C508.241 288.142 508.281 288.046 508.281 287.946C508.275 287.851 508.233 287.761 508.163 287.695C508.093 287.629 508 287.593 507.905 287.593Z" fill="#037EF3"/>
<path d="M460.523 287.593H456.169L460.042 283.728C460.111 283.656 460.15 283.56 460.15 283.461C460.15 283.361 460.111 283.265 460.042 283.194C460.007 283.158 459.965 283.13 459.92 283.111C459.874 283.092 459.825 283.082 459.775 283.082C459.725 283.082 459.676 283.092 459.63 283.111C459.585 283.13 459.543 283.158 459.508 283.194L455.635 287.067V282.705C455.635 282.605 455.595 282.509 455.525 282.439C455.454 282.368 455.359 282.329 455.259 282.329C455.16 282.331 455.065 282.371 454.995 282.441C454.925 282.511 454.885 282.606 454.883 282.705V287.067L451.018 283.171C450.983 283.136 450.941 283.108 450.895 283.089C450.849 283.07 450.8 283.06 450.751 283.06C450.701 283.06 450.652 283.07 450.606 283.089C450.56 283.108 450.519 283.136 450.484 283.171C450.414 283.243 450.375 283.338 450.375 283.438C450.375 283.538 450.414 283.633 450.484 283.705L454.357 287.57H449.995C449.896 287.572 449.801 287.613 449.731 287.683C449.661 287.753 449.621 287.847 449.619 287.946C449.619 288.046 449.658 288.142 449.729 288.212C449.799 288.283 449.895 288.322 449.995 288.322H454.357L450.484 292.195C450.414 292.267 450.375 292.363 450.375 292.462C450.375 292.562 450.414 292.658 450.484 292.729C450.556 292.797 450.651 292.835 450.751 292.835C450.85 292.835 450.945 292.797 451.018 292.729L454.883 288.856V293.211C454.883 293.31 454.923 293.406 454.993 293.477C455.064 293.547 455.159 293.587 455.259 293.587C455.359 293.587 455.454 293.547 455.525 293.477C455.595 293.406 455.635 293.31 455.635 293.211V288.856L459.508 292.729C459.58 292.797 459.676 292.835 459.775 292.835C459.874 292.835 459.97 292.797 460.042 292.729C460.111 292.658 460.15 292.562 460.15 292.462C460.15 292.363 460.111 292.267 460.042 292.195L456.169 288.322H460.523C460.623 288.322 460.719 288.283 460.789 288.212C460.86 288.142 460.899 288.046 460.899 287.946C460.894 287.851 460.851 287.761 460.782 287.695C460.712 287.629 460.619 287.593 460.523 287.593Z" fill="#037EF3"/>
<path d="M523.697 287.593H519.343L523.216 283.728C523.285 283.656 523.324 283.56 523.324 283.461C523.324 283.361 523.285 283.265 523.216 283.194C523.181 283.158 523.139 283.13 523.094 283.111C523.048 283.092 522.999 283.082 522.949 283.082C522.899 283.082 522.85 283.092 522.804 283.111C522.759 283.13 522.717 283.158 522.682 283.194L518.809 287.067V282.705C518.809 282.605 518.769 282.509 518.699 282.439C518.628 282.368 518.533 282.329 518.433 282.329C518.334 282.331 518.239 282.371 518.169 282.441C518.099 282.511 518.059 282.606 518.057 282.705V287.067L514.191 283.171C514.157 283.136 514.115 283.108 514.069 283.089C514.023 283.07 513.974 283.06 513.924 283.06C513.875 283.06 513.826 283.07 513.78 283.089C513.734 283.108 513.692 283.136 513.658 283.171C513.588 283.243 513.549 283.338 513.549 283.438C513.549 283.538 513.588 283.633 513.658 283.705L517.531 287.57H513.169C513.07 287.572 512.975 287.613 512.905 287.683C512.835 287.753 512.795 287.847 512.793 287.946C512.793 288.046 512.832 288.142 512.903 288.212C512.973 288.283 513.069 288.322 513.169 288.322H517.531L513.658 292.195C513.588 292.267 513.549 292.363 513.549 292.462C513.549 292.562 513.588 292.658 513.658 292.729C513.73 292.797 513.825 292.835 513.924 292.835C514.024 292.835 514.119 292.797 514.191 292.729L518.057 288.856V293.211C518.057 293.31 518.097 293.406 518.167 293.477C518.238 293.547 518.333 293.587 518.433 293.587C518.533 293.587 518.628 293.547 518.699 293.477C518.769 293.406 518.809 293.31 518.809 293.211V288.856L522.682 292.729C522.754 292.797 522.85 292.835 522.949 292.835C523.048 292.835 523.143 292.797 523.216 292.729C523.285 292.658 523.324 292.562 523.324 292.462C523.324 292.363 523.285 292.267 523.216 292.195L519.343 288.322H523.697C523.797 288.322 523.893 288.283 523.963 288.212C524.034 288.142 524.073 288.046 524.073 287.946C524.067 287.851 524.025 287.761 523.955 287.695C523.886 287.629 523.793 287.593 523.697 287.593Z" fill="#037EF3"/>
<path d="M476.316 287.593H471.962L475.835 283.728C475.904 283.656 475.943 283.56 475.943 283.461C475.943 283.361 475.904 283.265 475.835 283.194C475.8 283.158 475.758 283.13 475.712 283.111C475.667 283.092 475.617 283.082 475.568 283.082C475.518 283.082 475.469 283.092 475.423 283.111C475.377 283.13 475.336 283.158 475.301 283.194L471.428 287.067V282.705C471.428 282.605 471.388 282.509 471.318 282.439C471.247 282.368 471.152 282.329 471.052 282.329C470.953 282.331 470.858 282.371 470.788 282.441C470.718 282.511 470.678 282.606 470.676 282.705V287.067L466.81 283.171C466.775 283.136 466.734 283.108 466.688 283.089C466.642 283.07 466.593 283.06 466.543 283.06C466.494 283.06 466.445 283.07 466.399 283.089C466.353 283.108 466.311 283.136 466.276 283.171C466.207 283.243 466.168 283.338 466.168 283.438C466.168 283.538 466.207 283.633 466.276 283.705L470.149 287.57H465.788C465.688 287.572 465.594 287.613 465.524 287.683C465.454 287.753 465.414 287.847 465.412 287.946C465.412 288.046 465.451 288.142 465.522 288.212C465.592 288.283 465.688 288.322 465.788 288.322H470.149L466.276 292.195C466.207 292.267 466.168 292.363 466.168 292.462C466.168 292.562 466.207 292.658 466.276 292.729C466.349 292.797 466.444 292.835 466.543 292.835C466.642 292.835 466.738 292.797 466.81 292.729L470.676 288.856V293.211C470.676 293.31 470.715 293.406 470.786 293.477C470.856 293.547 470.952 293.587 471.052 293.587C471.152 293.587 471.247 293.547 471.318 293.477C471.388 293.406 471.428 293.31 471.428 293.211V288.856L475.301 292.729C475.373 292.797 475.469 292.835 475.568 292.835C475.667 292.835 475.762 292.797 475.835 292.729C475.904 292.658 475.943 292.562 475.943 292.462C475.943 292.363 475.904 292.267 475.835 292.195L471.962 288.322H476.316C476.416 288.322 476.511 288.283 476.582 288.212C476.652 288.142 476.692 288.046 476.692 287.946C476.686 287.851 476.644 287.761 476.574 287.695C476.504 287.629 476.412 287.593 476.316 287.593Z" fill="#037EF3"/>
<path d="M539.49 287.593H535.136L539.009 283.728C539.078 283.656 539.117 283.56 539.117 283.461C539.117 283.361 539.078 283.265 539.009 283.194C538.974 283.158 538.932 283.13 538.886 283.111C538.84 283.092 538.791 283.082 538.742 283.082C538.692 283.082 538.643 283.092 538.597 283.111C538.551 283.13 538.51 283.158 538.475 283.194L534.602 287.067V282.705C534.602 282.605 534.562 282.509 534.492 282.439C534.421 282.368 534.325 282.329 534.226 282.329C534.127 282.331 534.032 282.371 533.962 282.441C533.892 282.511 533.852 282.606 533.85 282.705V287.067L529.984 283.171C529.949 283.136 529.908 283.108 529.862 283.089C529.816 283.07 529.767 283.06 529.717 283.06C529.668 283.06 529.618 283.07 529.573 283.089C529.527 283.108 529.485 283.136 529.45 283.171C529.381 283.243 529.342 283.338 529.342 283.438C529.342 283.538 529.381 283.633 529.45 283.705L533.323 287.57H528.961C528.862 287.572 528.768 287.613 528.698 287.683C528.628 287.753 528.587 287.847 528.585 287.946C528.585 288.046 528.625 288.142 528.696 288.212C528.766 288.283 528.862 288.322 528.961 288.322H533.323L529.45 292.195C529.381 292.267 529.342 292.363 529.342 292.462C529.342 292.562 529.381 292.658 529.45 292.729C529.523 292.797 529.618 292.835 529.717 292.835C529.816 292.835 529.912 292.797 529.984 292.729L533.85 288.856V293.211C533.85 293.31 533.889 293.406 533.96 293.477C534.03 293.547 534.126 293.587 534.226 293.587C534.325 293.587 534.421 293.547 534.492 293.477C534.562 293.406 534.602 293.31 534.602 293.211V288.856L538.475 292.729C538.547 292.797 538.643 292.835 538.742 292.835C538.841 292.835 538.936 292.797 539.009 292.729C539.078 292.658 539.117 292.562 539.117 292.462C539.117 292.363 539.078 292.267 539.009 292.195L535.136 288.322H539.49C539.59 288.322 539.685 288.283 539.756 288.212C539.826 288.142 539.866 288.046 539.866 287.946C539.86 287.851 539.818 287.761 539.748 287.695C539.678 287.629 539.586 287.593 539.49 287.593Z" fill="#037EF3"/>
<path d="M692.142 379.078C692.121 378.169 692.008 377.264 691.804 376.378C691.127 373.836 689.601 370.76 687.089 369.993C684.495 369.199 681.99 368.141 679.613 366.835C679.162 358.773 681.012 350.523 678.997 342.71C678.245 339.852 677.004 337.114 676.673 334.189C676.259 330.549 677.252 326.669 675.801 323.315C674.658 320.667 672.146 318.802 669.446 317.825C666.746 316.847 663.836 316.584 660.971 316.321C657.361 316.027 645.674 314.644 641.598 317.87C641.317 318.088 641.064 318.341 640.846 318.622C640.756 318.746 640.676 318.877 640.605 319.013L640.568 319.073C640.486 319.23 640.418 319.393 640.365 319.562C640.308 319.746 640.265 319.935 640.237 320.126C640.237 320.186 640.237 320.246 640.237 320.306C640.237 320.367 640.237 320.57 640.237 320.705V320.908C640.237 321.043 640.237 321.179 640.237 321.322C640.237 321.465 640.237 321.427 640.237 321.48C640.29 322.156 640.387 322.833 640.387 323.503C640.395 323.836 640.365 324.169 640.297 324.495C640.047 325.382 639.622 326.211 639.049 326.932L638.913 327.127C638.831 327.248 638.748 327.361 638.673 327.481C638.598 327.601 638.537 327.691 638.477 327.797C638.417 327.902 638.357 327.97 638.304 328.067C638.232 328.191 638.166 328.319 638.109 328.451C638.109 328.526 638.026 328.594 637.996 328.669C637.902 328.872 637.826 329.084 637.77 329.301C637.594 329.954 637.579 330.641 637.725 331.301C637.928 332.145 638.277 332.947 638.756 333.67C638.944 333.978 639.147 334.279 639.357 334.58L639.884 335.295C639.785 335.992 639.733 336.696 639.726 337.4C639.726 339.755 640.261 342.079 641.29 344.197C642.319 346.316 643.816 348.173 645.667 349.628C645.965 352.804 645.932 356.002 645.569 359.172C645.501 359.833 645.419 360.503 645.328 361.165C645.238 361.826 645.17 362.262 645.08 362.811C643.98 362.969 642.858 362.884 641.794 362.563C641.303 362.344 640.801 362.151 640.29 361.984C638.101 361.435 635.868 363.616 633.702 362.954C633.702 363.06 633.642 363.157 633.604 363.255C633.152 362.974 632.632 362.821 632.1 362.811C630.814 362.751 629.769 361.819 628.836 360.939L625.971 358.239C625.784 358.074 625.618 357.887 625.475 357.683C625.321 357.39 625.204 357.079 625.129 356.758C624.647 355.201 623.482 353.96 622.354 352.779C622.14 352.51 621.856 352.305 621.534 352.185C621.409 352.166 621.283 352.166 621.158 352.185C621.081 352.08 620.998 351.98 620.91 351.884C620.715 351.661 620.507 351.45 620.286 351.253C618.917 349.989 618.781 348.906 617.593 347.493C616.557 346.144 615.617 344.724 614.781 343.244C614.683 342.454 614.548 341.642 614.382 340.822C614.003 338.945 613.452 337.108 612.735 335.332L611.231 332.001L611.058 332.174C609.968 330.549 608.802 329.662 607.757 329.872C606.004 330.233 605.14 333.633 605.418 338.077L606.019 342.589C606.019 342.702 606.072 342.815 606.102 342.928C605.994 343.462 605.939 344.006 605.937 344.552C605.937 345.184 606.523 345.65 606.832 346.214C607.325 346.978 607.586 347.869 607.584 348.778C607.546 349.102 607.448 349.41 607.433 349.726C607.474 350.433 607.72 351.112 608.14 351.681L611.9 357.998L612.652 359.322L612.698 359.382C612.935 359.844 613.281 360.241 613.705 360.54C613.853 362.122 614.272 363.666 614.946 365.105C615.074 365.391 615.217 365.662 615.367 365.932C616.378 367.594 617.569 369.14 618.917 370.542L620.707 372.55C622.474 374.521 624.241 376.498 626.159 378.318C626.845 379.049 627.675 379.63 628.596 380.026C629.047 380.206 629.537 380.264 630.018 380.194C630.498 380.124 630.952 379.928 631.333 379.627C631.333 380.559 631.333 381.492 631.333 382.424C631.612 382.442 631.882 382.533 632.114 382.689C632.346 382.845 632.532 383.061 632.653 383.313C632.774 383.565 632.826 383.845 632.803 384.124C632.779 384.403 632.682 384.67 632.521 384.899C630.942 388.952 629.348 393.043 626.956 396.676C628.644 397.675 630.209 398.869 631.619 400.233C632.533 401.246 633.347 402.347 634.048 403.519C634.115 404.076 634.168 404.625 634.198 405.174C634.755 414.138 631.288 423.034 628.182 431.577C627.287 433.999 626.309 436.533 626.385 439.053C625.795 439.416 625.232 439.821 624.7 440.263C625.317 441.873 625.076 443.309 625.008 445.031C624.986 446.064 624.774 447.083 624.384 448.039C624.057 448.702 623.696 449.347 623.301 449.972C621.353 453.409 620.925 457.493 620.534 461.418C620.301 463.787 621.218 466.682 620.143 468.803C618.285 472.443 616.638 476.324 616.383 480.369C616.374 481.28 616.257 482.186 616.037 483.069C615.803 483.821 615.39 484.461 615.179 485.198C614.962 486.185 614.912 487.202 615.029 488.206C615.172 491.81 614.636 495.41 613.45 498.817C612.51 501.502 611.472 504.374 612.209 507.134C610.394 509.04 609.274 511.501 609.028 514.121C609.008 514.791 608.928 515.458 608.787 516.114C608.557 516.784 608.254 517.427 607.884 518.031C606.371 520.788 605.662 523.915 605.839 527.056C603.583 530.117 602.455 533.892 601.785 537.644C601.116 541.397 600.823 545.217 599.966 548.925C598.822 553.828 596.754 558.784 596.348 563.808C593.912 565.364 592.859 568.38 592.393 571.23C591.926 574.08 591.851 577.074 590.655 579.706C590.039 581.074 589.151 582.3 588.565 583.699C588.153 584.813 587.851 585.964 587.662 587.136C587.301 588.971 586.985 591.016 587.429 592.776C586.791 593.452 586.047 594.018 585.226 594.453C585.346 593.987 585.444 593.521 585.527 593.047C583.586 594.807 580.067 594.19 578.518 596.303C578.052 596.984 577.871 597.82 578.011 598.633C578.152 599.445 578.603 600.172 579.27 600.657C579.754 600.953 580.278 601.178 580.826 601.327C584.586 602.53 588.452 603.741 592.317 603.102C592.774 603.052 593.217 602.912 593.618 602.688C594.121 602.318 594.535 601.84 594.829 601.289C595.408 600.372 595.987 599.454 596.559 598.537C597.944 598.95 599.353 599.279 600.778 599.522C600.921 600.725 601.026 601.928 601.079 603.132C601.831 603.282 602.838 603.327 603.192 602.628C603.299 602.363 603.343 602.077 603.32 601.793C603.32 601.259 603.395 600.552 603.44 599.83H603.59C605.885 599.923 608.168 599.461 610.246 598.484C609.441 591.821 612.096 585.308 614.397 579.006C616.826 572.373 618.909 565.62 621.007 558.867C622.512 554.114 624.174 549.512 625.648 544.751C627.503 538.735 629.365 532.719 631.235 526.702C632.047 524.055 632.867 521.438 633.8 518.806C635.763 513.48 638.092 508.296 640.771 503.291C641.523 501.87 642.275 500.464 642.892 498.99C643.644 497.192 644.178 495.312 644.779 493.455C646.09 489.643 647.668 485.929 649.502 482.34C649.555 482.242 649.592 482.152 649.645 482.062C650.254 484.551 650.863 487.078 651.269 489.582C651.819 492.653 651.862 495.792 651.397 498.877C651.036 500.975 650.352 503.051 650.435 505.179C650.547 508.12 652.119 510.789 652.894 513.624C653.393 515.746 653.675 517.913 653.736 520.092C653.947 523.476 655.782 527.274 654.488 530.41C650.465 540.344 652.412 551.565 650.119 561.995C648.938 567.35 645.321 572.381 645.607 577.856C645.807 581.741 646.148 585.617 646.629 589.482C646.745 590.702 647.063 591.894 647.569 593.009C647.869 593.596 648.214 594.159 648.6 594.694C648.269 594.822 647.99 595.16 647.75 595.874C647.133 597.755 647.75 600.086 649.419 601.139C650.1 601.502 650.833 601.756 651.593 601.891C652.615 602.181 653.673 602.328 654.736 602.327C655.067 602.309 655.396 602.269 655.721 602.207C656.884 602.695 658.071 603.122 659.279 603.485C659.279 603.793 659.339 604.102 659.376 604.41C659.378 604.571 659.414 604.73 659.482 604.876C659.549 605.023 659.646 605.153 659.767 605.26C659.955 605.347 660.163 605.384 660.369 605.365H664.453C664.453 605.027 664.453 604.681 664.453 604.342C664.92 604.391 665.392 604.341 665.839 604.196C666.286 604.051 666.697 603.814 667.047 603.5C667.409 603.04 667.665 602.506 667.799 601.936C668.912 598.161 670.018 594.383 671.116 590.603C672.432 586.424 672.98 582.042 672.732 577.668C671.281 563.808 674.47 549.903 673.432 536.005C672.807 527.652 673.237 519.253 674.71 511.007C675.049 509.142 675.462 507.247 675.613 505.39C675.944 501.885 675.537 498.343 675.786 494.861C675.868 493.643 676.034 492.432 676.184 491.221C677.215 483.706 677.755 476.133 677.801 468.547C677.778 466.034 677.622 463.524 677.335 461.027C678.119 460.827 678.831 460.41 679.388 459.824C680.057 458.952 679.884 457.726 679.877 456.613C679.877 453.951 680.997 451.439 681.9 448.927C683.058 445.462 684.007 441.932 684.742 438.353C685.519 435.47 685.944 432.503 686.006 429.517C686.006 429.216 685.991 428.915 685.961 428.614C686.244 428.418 686.48 428.161 686.653 427.862C686.849 427.422 686.971 426.952 687.014 426.471C687.284 424.553 687.562 422.628 687.833 420.703C688.034 419.324 688.232 417.948 688.427 416.574L690.819 399.887C691.022 398.435 691.232 396.991 691.435 395.548L692.06 391.231C692.127 390.719 692.203 390.208 692.255 389.727C694.09 386.658 692.338 382.567 692.142 379.078ZM672.191 441.557C671.304 439.451 670.476 437.293 670.687 435.022H670.604C670.802 434.323 670.768 433.579 670.506 432.901C670.273 432.352 669.867 431.886 669.619 431.337C669.352 430.667 669.215 429.952 669.213 429.231C669.026 424.657 669.387 420.077 670.288 415.589C670.386 415.063 670.491 414.529 670.589 414.002C670.905 413.82 671.193 413.595 671.446 413.333C671.842 412.882 672.169 412.375 672.417 411.829C673.266 410.122 674.041 408.385 674.755 406.617C674.989 406.046 675.327 405.384 675.906 405.241C675.786 409.641 676.237 414.13 674.447 418.101C674.107 418.741 673.854 419.424 673.695 420.132C673.53 421.252 673.996 422.388 673.83 423.501C673.748 424.08 673.499 424.614 673.402 425.185C673.327 425.466 673.329 425.761 673.405 426.041C673.482 426.321 673.631 426.576 673.838 426.78C673.938 426.849 674.046 426.905 674.161 426.945C674.116 427.246 674.079 427.554 674.048 427.847C673.988 428.464 673.958 429.043 673.921 429.404C673.748 431.244 673.68 433.092 673.718 434.939C673.718 436.932 673.793 438.925 673.763 440.955C673.791 441.538 673.693 442.12 673.477 442.662C673.328 442.942 673.135 443.196 672.905 443.415C672.687 442.738 672.447 442.144 672.191 441.557Z" fill="url(#paint0_linear)"/>
<path d="M612.827 354.298C615.122 353.828 615.903 348.179 614.571 341.681C613.24 335.183 610.3 330.297 608.005 330.767C605.711 331.237 604.93 336.886 606.261 343.384C607.593 349.882 610.532 354.768 612.827 354.298Z" fill="#FBBEBE"/>
<path d="M647.87 596.017C647.253 597.882 647.87 600.214 649.54 601.229C650.216 601.589 650.944 601.843 651.698 601.981C652.718 602.269 653.774 602.413 654.834 602.41C656.135 602.349 657.383 601.838 658.684 601.658C658.835 601.62 658.993 601.641 659.128 601.718C659.193 601.788 659.242 601.871 659.271 601.962C659.299 602.053 659.307 602.15 659.294 602.244C659.308 602.984 659.363 603.722 659.459 604.455C659.46 604.616 659.496 604.776 659.563 604.922C659.63 605.069 659.728 605.199 659.85 605.305C660.038 605.393 660.245 605.429 660.452 605.41H664.528C664.62 601.829 664.228 598.252 663.362 594.776C663.306 594.51 663.204 594.256 663.061 594.024C662.715 593.646 662.261 593.383 661.76 593.272C660.764 592.858 659.687 592.67 658.609 592.723C657.293 592.896 656.195 593.746 655.075 594.453C653.954 595.16 652.427 595.784 651.066 595.423C649.705 595.062 648.57 593.927 647.87 596.017Z" fill="#3F3D56"/>
<path d="M588.023 592.716C586.877 593.943 585.472 594.899 583.91 595.513L583.218 595.844C583.122 595.881 583.04 595.947 582.985 596.032C582.971 596.091 582.971 596.151 582.984 596.21C582.997 596.269 583.023 596.323 583.06 596.371C583.635 597.261 584.486 597.939 585.483 598.302C586.479 598.664 587.567 598.691 588.58 598.379C589.028 598.267 589.442 598.05 589.791 597.747C590.364 597.067 590.692 596.214 590.723 595.325C590.951 594.409 590.912 593.446 590.61 592.55C589.565 590.197 589.181 591.264 588.023 592.716Z" fill="#FBBEBE"/>
<path d="M603.651 601.981C603.674 602.265 603.63 602.551 603.523 602.816C603.169 603.508 602.184 603.47 601.417 603.32C601.301 600.768 600.992 598.229 600.492 595.724C599.033 595.656 597.98 597.04 597.198 598.281L595.183 601.477C594.891 602.027 594.48 602.505 593.979 602.876C593.576 603.096 593.135 603.237 592.678 603.289C588.828 603.929 584.94 602.718 581.225 601.515C580.678 601.368 580.154 601.145 579.668 600.853C579.005 600.366 578.557 599.642 578.416 598.831C578.276 598.021 578.455 597.187 578.916 596.506C580.473 594.4 583.97 595.002 585.91 593.257C585.708 594.485 585.375 595.687 584.917 596.845C587.512 596.453 589.257 594.077 591.347 592.49C591.873 592.045 592.505 591.744 593.182 591.618C593.689 591.575 594.199 591.629 594.686 591.776C597.097 592.383 599.352 593.493 601.304 595.032C602.094 595.656 603.327 596.536 603.673 597.499C604.042 598.649 603.651 600.755 603.651 601.981Z" fill="#3F3D56"/>
<path d="M655.383 353.855C663.964 353.855 670.92 346.899 670.92 338.318C670.92 329.737 663.964 322.781 655.383 322.781C646.802 322.781 639.846 329.737 639.846 338.318C639.846 346.899 646.802 353.855 655.383 353.855Z" fill="#FBBEBE"/>
<path d="M685.991 430.051C685.928 433.021 685.506 435.973 684.735 438.842C683.999 442.405 683.05 445.921 681.892 449.371C680.997 451.875 679.877 454.387 679.884 457.041C679.884 458.147 680.065 459.373 679.388 460.245C678.785 460.857 678.025 461.292 677.192 461.501C676.776 461.611 676.392 461.818 676.071 462.104C675.749 462.39 675.5 462.748 675.342 463.148C674.636 462.093 674.107 460.929 673.778 459.704C672.429 455.572 671.176 451.419 670.018 447.242C669.912 447.002 669.866 446.739 669.884 446.477C669.903 446.215 669.984 445.962 670.123 445.738C670.314 445.572 670.536 445.447 670.777 445.37C671.548 445.055 672.254 444.602 672.86 444.031C673.145 443.779 673.379 443.475 673.552 443.136C673.771 442.597 673.871 442.018 673.845 441.437C673.845 439.444 673.845 437.458 673.793 435.465C673.761 433.626 673.832 431.785 674.003 429.953C674.003 429.592 674.071 429.013 674.131 428.396C674.244 427.216 674.47 425.847 675.109 425.388C676.064 424.749 678.922 425.606 680.005 425.757C681.87 426.012 683.765 426.313 685.585 426.667C685.849 427.775 685.985 428.911 685.991 430.051Z" fill="#3F3D56"/>
<path d="M623.256 355.712C622.654 356.916 621.21 357.495 620.097 358.254L616.285 360.871C616.03 361.101 615.731 361.276 615.407 361.388C615.083 361.499 614.739 361.543 614.397 361.518C614.087 361.403 613.803 361.228 613.561 361.002C613.32 360.776 613.126 360.504 612.991 360.202C612.993 360.182 612.993 360.162 612.991 360.142L612.201 358.818L608.441 352.516C608.023 351.952 607.78 351.277 607.742 350.576C607.742 350.253 607.854 349.952 607.884 349.628C607.895 348.72 607.633 347.83 607.132 347.071C606.832 346.507 606.23 346.041 606.245 345.409C606.216 344.579 606.36 343.752 606.666 342.98C607.061 342.266 607.627 341.661 608.313 341.221C608.667 340.965 609.028 340.724 609.404 340.469C609.603 340.332 609.824 340.231 610.058 340.168C610.682 340.04 611.299 340.559 611.93 340.581C614.645 342.401 615.691 345.846 617.826 348.327C619.03 349.741 619.15 350.824 620.511 352.087C620.729 352.283 620.94 352.494 621.143 352.712C621.412 353.005 621.64 353.334 621.82 353.689C622.068 354.336 623.564 355.096 623.256 355.712Z" fill="#3F3D56"/>
<path d="M649.923 353.862C651.044 356.231 651.916 358.833 651.593 361.435C651.526 362.14 651.303 362.821 650.938 363.428C649.855 365.09 647.584 365.391 645.607 365.489C645.19 365.454 644.77 365.502 644.373 365.631C643.975 365.76 643.607 365.968 643.29 366.241C643.026 366.625 642.897 367.086 642.923 367.551C642.948 368.017 643.128 368.46 643.433 368.813C644.069 369.491 644.858 370.007 645.734 370.317C648.863 371.693 652.239 372.829 655.639 372.513C657.218 372.362 658.752 371.904 660.324 371.67C662.037 371.485 663.759 371.389 665.483 371.385C667.528 371.309 669.566 371.106 671.604 370.903L677.004 370.369C677.299 370.374 677.585 370.269 677.809 370.076C678.207 369.61 677.696 368.925 677.199 368.572C674.334 366.451 670.687 364.992 669.055 361.804C668.303 360.3 668.07 358.51 667.513 356.885C666.957 355.261 666.069 353.795 665.723 352.14C665.539 350.689 665.456 349.226 665.475 347.763C665.494 346.288 664.957 344.86 663.971 343.762C662.896 342.762 661.339 342.507 659.88 342.446C656.285 342.288 652.458 343.146 649.908 345.68C649.224 346.364 648.637 347.184 647.93 347.801C647.223 348.418 646.261 348.598 646.727 349.41C647.193 350.222 648.111 350.726 648.607 351.441C649.11 352.212 649.55 353.021 649.923 353.862Z" fill="#FBBEBE"/>
<path d="M680.554 375.739C679.605 381.53 678.063 387.208 675.951 392.682C674.889 395.155 673.985 397.691 673.244 400.278C672.665 402.609 672.778 405.106 672.244 407.445C671.582 410.355 670.92 413.273 670.386 416.206C669.49 420.685 669.132 425.254 669.318 429.818C669.32 430.536 669.458 431.248 669.724 431.916C669.972 432.457 670.371 432.924 670.604 433.48C670.779 433.969 670.85 434.489 670.814 435.006C670.777 435.524 670.634 436.029 670.394 436.488C670.008 437.349 669.484 438.142 668.844 438.835C661.835 440.925 654.338 440.241 647.035 440.685C640.305 441.091 633.499 442.474 626.866 441.324C626.114 438.316 627.37 435.165 628.445 432.232C631.566 423.711 635.018 414.837 634.461 405.911C634.403 404.869 634.285 403.832 634.108 402.805C633.017 396.48 634.206 389.93 636.108 383.801C637.289 379.98 637.236 375.912 636.966 371.934C636.832 370.642 636.814 369.341 636.913 368.046C637.022 366.723 637.513 365.461 638.327 364.413C638.327 364.361 638.394 364.308 638.432 364.255C638.47 364.203 638.763 364.21 638.996 364.255C639.056 364.281 639.12 364.294 639.184 364.294C639.249 364.294 639.313 364.281 639.372 364.255L639.455 364.203C639.487 364.18 639.525 364.168 639.564 364.168C639.603 364.168 639.641 364.18 639.673 364.203C639.846 364.308 639.944 364.669 640.32 364.737C640.875 364.821 641.435 364.873 641.997 364.895C642.672 364.915 643.343 365.011 643.997 365.18H644.087C645.065 365.345 646.069 365.26 647.005 364.932C647.628 364.777 648.229 364.544 648.795 364.24C648.961 364.06 649.998 363.894 650.209 363.767C650.893 363.353 650.743 361.413 650.886 360.616C650.965 359.816 651.155 359.031 651.45 358.284C651.792 357.733 652.265 357.274 652.826 356.947C653.387 356.621 654.02 356.437 654.669 356.412C655.963 356.381 657.258 356.497 658.526 356.758C661.332 357.156 664.204 357.088 666.957 357.735C668.341 358.059 669.852 358.547 671.123 357.916C671.469 357.998 671.522 358.299 671.522 358.668C671.489 359.018 671.419 359.363 671.311 359.698C670.83 361.774 672.462 363.684 673.966 365.188C674.601 365.897 675.351 366.494 676.184 366.955C676.936 367.301 677.688 367.444 678.44 367.82C679.049 368.145 679.567 368.618 679.944 369.196C680.378 369.859 680.67 370.604 680.802 371.385C680.963 372.84 680.879 374.312 680.554 375.739Z" fill="#3F3D56"/>
<path opacity="0.1" d="M680.554 375.739C679.605 381.53 678.063 387.208 675.951 392.682C674.889 395.155 673.985 397.691 673.244 400.278C672.665 402.609 672.778 405.106 672.244 407.445C671.582 410.355 670.92 413.273 670.386 416.206C670.228 416.296 670.063 416.379 669.897 416.454C668.962 416.901 667.97 417.22 666.949 417.402C665.116 417.624 663.259 417.563 661.444 417.221L650.713 415.785C646.426 415.206 641.861 414.506 638.68 411.604C636.913 410.009 635.755 407.903 634.484 405.873C634.426 404.832 634.308 403.795 634.13 402.767C633.04 396.442 634.228 389.892 636.131 383.763C637.312 379.943 637.259 375.874 636.988 371.896C636.854 370.604 636.837 369.303 636.936 368.008C637.044 366.686 637.536 365.424 638.349 364.376C638.569 364.311 638.793 364.261 639.019 364.225C639.17 364.195 639.323 364.175 639.477 364.165H639.696C639.949 364.166 640.201 364.196 640.448 364.255C640.96 364.419 641.462 364.612 641.952 364.834H642.042C642.687 365.047 643.364 365.144 644.042 365.12C645.035 365.12 646.058 364.962 647.05 364.895C648.277 364.703 649.532 364.928 650.615 365.534C651.314 366.096 651.977 366.701 652.6 367.346C653.353 367.937 654.2 368.397 655.105 368.707C661.578 371.178 668.76 371.027 675.124 368.286C675.735 367.939 676.429 367.762 677.132 367.775C677.651 367.877 678.143 368.087 678.576 368.392C679.027 368.655 679.471 368.91 679.929 369.144C680.363 369.806 680.655 370.551 680.787 371.332C680.959 372.804 680.88 374.294 680.554 375.739Z" fill="black"/>
<path d="M687.104 370.76C684.109 369.846 681.232 368.584 678.531 367C678.097 366.698 677.605 366.488 677.087 366.384C676.382 366.375 675.687 366.552 675.071 366.895C668.71 369.636 661.531 369.787 655.06 367.316C654.156 367.003 653.31 366.543 652.555 365.955C651.93 365.312 651.267 364.707 650.57 364.143C648.096 362.541 644.674 364.421 641.906 363.391C641.416 363.171 640.914 362.978 640.402 362.811C638.214 362.262 635.988 364.443 633.837 363.782C633.037 365.957 632.445 368.203 632.07 370.49C631.764 373.116 631.601 375.757 631.581 378.401C631.581 379.988 631.506 381.575 631.581 383.162C631.846 383.205 632.099 383.303 632.325 383.449C632.55 383.595 632.742 383.787 632.89 384.011C632.988 384.273 633.029 384.554 633.008 384.833C632.987 385.112 632.906 385.384 632.769 385.628C631.198 389.667 629.603 393.75 627.219 397.367C628.899 398.369 630.459 399.56 631.867 400.917C634.499 403.7 635.792 407.603 638.635 410.175C641.839 413.07 646.404 413.777 650.668 414.348L661.399 415.785C663.217 416.125 665.075 416.188 666.912 415.973C667.93 415.787 668.919 415.466 669.852 415.018C670.462 414.763 671.018 414.395 671.492 413.935C671.888 413.485 672.215 412.978 672.462 412.431C673.311 410.731 674.086 408.994 674.801 407.234C675.049 406.61 675.425 405.88 676.102 405.828C680.087 402.233 683.847 398.548 687.833 394.953C689.435 393.626 690.872 392.111 692.112 390.441C694.09 387.516 692.293 383.372 692.112 379.837C692.09 378.933 691.977 378.034 691.774 377.153C691.127 374.588 689.608 371.52 687.104 370.76Z" fill="#037EF3"/>
<path opacity="0.1" d="M623.256 355.712C622.654 356.916 621.211 357.495 620.098 358.254L616.285 360.871C616.03 361.101 615.731 361.276 615.407 361.388C615.083 361.499 614.739 361.543 614.397 361.518C614.087 361.403 613.803 361.228 613.561 361.002C613.32 360.776 613.126 360.504 612.991 360.202C612.991 360.029 612.991 359.841 612.991 359.66C612.962 359.052 613.043 358.443 613.231 357.863C613.605 357.013 614.184 356.268 614.916 355.697C616.332 354.357 618.016 353.331 619.857 352.689C620.144 352.577 620.456 352.546 620.759 352.599C620.876 352.629 620.988 352.678 621.09 352.742C621.359 353.035 621.587 353.364 621.767 353.719C622.068 354.336 623.564 355.096 623.256 355.712Z" fill="black"/>
<path d="M632.235 363.639C630.957 363.579 629.912 362.654 628.979 361.774L626.129 359.127C625.938 358.965 625.771 358.778 625.632 358.57C625.478 358.278 625.362 357.967 625.287 357.645C624.682 356.126 623.735 354.767 622.519 353.674C622.307 353.405 622.023 353.201 621.699 353.088C621.394 353.031 621.078 353.063 620.789 353.178C618.948 353.819 617.264 354.844 615.848 356.186C615.117 356.758 614.538 357.502 614.164 358.352C613.975 358.931 613.893 359.54 613.923 360.149C613.941 362.136 614.387 364.096 615.232 365.895C615.36 366.173 615.503 366.451 615.653 366.722C616.656 368.38 617.842 369.922 619.188 371.317L620.977 373.317C622.737 375.288 624.497 377.258 626.407 379.07C627.092 379.801 627.922 380.38 628.844 380.77C629.306 380.959 629.812 381.017 630.306 380.937C630.799 380.858 631.261 380.644 631.641 380.319C632.001 379.902 632.273 379.416 632.438 378.89C633.597 375.882 634.694 372.753 634.762 369.512C634.778 368.214 634.723 366.916 634.597 365.624C634.484 364.255 633.514 363.721 632.235 363.639Z" fill="#037EF3"/>
<path d="M677.809 468.924C677.765 476.488 677.227 484.042 676.199 491.537C676.049 492.748 675.883 493.959 675.801 495.17C675.553 498.682 675.959 502.209 675.628 505.698C675.455 507.586 675.064 509.458 674.733 511.301C673.263 519.524 672.834 527.9 673.454 536.231C674.492 550.091 671.311 563.958 672.755 577.78C672.93 580.468 672.781 583.167 672.311 585.82C672.042 587.465 671.653 589.089 671.146 590.678C670.048 594.443 668.945 598.203 667.837 601.958C667.706 602.53 667.449 603.064 667.085 603.523C666.701 603.854 666.251 604.1 665.765 604.244C665.278 604.388 664.767 604.427 664.265 604.357C659.925 604.222 655.842 602.349 651.901 600.522C651.448 600.343 651.028 600.089 650.66 599.77C649.841 598.92 649.908 597.582 649.547 596.461C649.186 595.34 648.209 594.288 647.652 593.137C647.195 592.049 646.918 590.893 646.832 589.715C646.331 585.865 645.99 581.999 645.81 578.119C645.524 572.659 649.134 567.636 650.322 562.326C652.578 551.888 650.668 540.698 654.676 530.793C655.94 527.665 654.105 523.875 653.924 520.506C653.859 518.332 653.577 516.17 653.082 514.053C652.33 511.225 650.743 508.563 650.63 505.63C650.547 503.51 651.232 501.441 651.585 499.351C652.054 496.274 652.011 493.141 651.457 490.078C651.059 487.551 650.45 485.025 649.841 482.558L649.705 482.836C647.873 486.417 646.297 490.124 644.99 493.929C644.388 495.771 643.862 497.651 643.11 499.441C642.493 500.945 641.734 502.321 640.989 503.735C638.319 508.721 635.994 513.885 634.033 519.189C633.1 521.792 632.281 524.454 631.468 527.063L625.896 545.112C624.392 549.857 622.745 554.445 621.271 559.183C619.188 565.951 617.104 572.659 614.683 579.277C612.427 585.556 609.742 592.062 610.547 598.695C608.473 599.669 606.196 600.131 603.906 600.041C600.03 599.698 596.228 598.775 592.626 597.303C591.189 596.769 589.7 596.168 588.73 594.987C587.061 592.949 587.474 589.963 587.978 587.369C588.168 586.199 588.47 585.051 588.881 583.94C589.452 582.556 590.385 581.33 590.971 579.961C592.152 577.337 592.227 574.366 592.693 571.516C593.16 568.666 594.197 565.658 596.634 564.108C597.048 559.1 599.108 554.159 600.244 549.263C601.101 545.556 601.387 541.743 602.064 537.983C602.741 534.223 603.831 530.462 606.102 527.417C605.923 524.276 606.632 521.149 608.148 518.392C608.514 517.787 608.814 517.144 609.043 516.475C609.183 515.821 609.263 515.157 609.283 514.489C609.532 511.876 610.649 509.422 612.457 507.518C611.705 504.773 612.75 501.908 613.69 499.246C614.874 495.848 615.41 492.259 615.269 488.664C615.153 487.661 615.201 486.644 615.412 485.656C615.623 484.904 616.037 484.265 616.277 483.543C616.492 482.659 616.605 481.753 616.616 480.843C616.909 476.775 618.556 472.939 620.376 469.307C621.459 467.186 620.541 464.306 620.767 461.945C621.158 458.019 621.587 453.958 623.534 450.536C623.895 449.89 624.286 449.273 624.61 448.604C625.002 447.648 625.213 446.628 625.234 445.595C625.302 443.873 625.542 442.444 624.926 440.843C628.949 437.496 634.439 436.556 639.673 436.33C644.907 436.105 650.201 436.579 655.323 435.466C656.827 435.127 658.331 434.661 659.918 434.435C663.52 433.909 667.175 434.728 670.732 435.541C670.484 437.797 671.311 439.963 672.236 442.061C675.848 450.56 677.741 459.689 677.809 468.924Z" fill="#33313F"/>
<path opacity="0.1" d="M660.098 470.646L651.457 490.078C651.059 487.551 650.45 485.025 649.84 482.558L649.705 482.836V482.43L654.413 472.075L660.098 470.646Z" fill="black"/>
<path opacity="0.1" d="M685.991 430.051C685.492 430.424 684.897 430.646 684.276 430.69C683.324 430.724 682.372 430.594 681.464 430.307L674.695 428.614C674.483 428.562 674.276 428.489 674.079 428.396C674.191 427.216 674.417 425.847 675.056 425.388C676.011 424.749 678.869 425.606 679.952 425.757C681.817 426.012 683.712 426.313 685.532 426.667C685.814 427.773 685.968 428.909 685.991 430.051Z" fill="black"/>
<path d="M691.714 385.305C691.857 385.929 692.06 386.546 692.18 387.177C692.382 388.727 692.329 390.3 692.022 391.832L691.405 396.134L690.789 400.458L688.405 417.101L687.818 421.222L686.991 426.975C686.952 427.454 686.83 427.922 686.63 428.359C686.384 428.768 686.04 429.109 685.629 429.352C685.218 429.594 684.753 429.731 684.276 429.75C683.324 429.78 682.373 429.651 681.464 429.367L674.695 427.667C674.399 427.614 674.117 427.499 673.868 427.329C673.661 427.126 673.512 426.873 673.435 426.594C673.359 426.315 673.357 426.021 673.432 425.742C673.53 425.17 673.778 424.636 673.86 424.065C674.026 422.952 673.56 421.809 673.725 420.703C673.887 419.999 674.14 419.319 674.477 418.68C676.733 413.694 675.425 407.873 676.192 402.459C676.882 398.197 678.682 394.193 681.411 390.847C683.095 388.736 685.029 386.837 687.171 385.192C688.014 384.538 689.352 383.192 690.413 382.936C691.774 382.65 691.488 384.357 691.714 385.305Z" fill="#037EF3"/>
<path d="M640.493 320.525C639.996 322.104 640.771 323.841 640.417 325.45C640.034 327.225 638.364 328.459 637.891 330.241C637.139 332.956 639.44 335.43 641.124 337.686C647.366 346.064 646.547 357.66 644.411 367.88C642.692 376.08 640.316 384.128 637.304 391.945C636.364 394.374 635.326 396.841 633.476 398.661C636.936 397.668 640.613 396.668 644.08 397.631C648.472 398.849 652.262 403.113 656.714 402.143C659.391 401.549 661.271 399.172 663.678 397.856C668.19 395.427 673.627 396.954 678.658 397.736C679.743 397.992 680.877 397.934 681.93 397.57C682.735 397.138 683.417 396.509 683.915 395.743C686.16 392.862 687.505 389.383 687.781 385.741C687.9 383.927 687.632 382.109 686.995 380.407C686.359 378.705 685.368 377.157 684.088 375.867C683.02 374.859 681.742 374.047 680.922 372.859C680.125 371.471 679.698 369.902 679.681 368.301C679.087 360.029 681.103 351.584 679.027 343.582C678.275 340.732 677.049 338.002 676.718 335.084C676.305 331.452 677.29 327.564 675.846 324.24C674.71 321.6 672.206 319.727 669.506 318.765C666.806 317.802 663.919 317.531 661.053 317.261C656.932 316.915 642.215 315.148 640.493 320.525Z" fill="#33313F"/>
<g opacity="0.1">
<path opacity="0.1" d="M644.411 367.88C642.701 376.046 640.337 384.061 637.342 391.848C637.861 390.817 638.297 389.734 638.71 388.659C641.725 380.842 644.102 372.794 645.817 364.594C647.96 354.366 648.78 342.785 642.538 334.4C641.034 332.399 639.101 330.233 639.169 327.887C638.613 328.597 638.181 329.395 637.891 330.248C637.139 332.963 639.44 335.437 641.124 337.694C647.366 346.064 646.547 357.66 644.411 367.88Z" fill="black"/>
<path opacity="0.1" d="M640.508 324.691C641.111 323.941 641.561 323.08 641.831 322.157C641.948 321.039 641.917 319.912 641.741 318.802C641.162 319.238 640.727 319.838 640.493 320.525C640.049 321.856 640.56 323.3 640.508 324.691Z" fill="black"/>
<path opacity="0.1" d="M685.329 392.434C684.831 393.198 684.148 393.824 683.344 394.254C682.292 394.625 681.156 394.683 680.072 394.419C675.041 393.667 669.544 392.118 665.092 394.547C662.678 395.856 660.805 398.232 658.12 398.834C653.676 399.827 649.886 395.563 645.494 394.322C642.38 393.457 639.101 394.171 635.965 395.074C635.342 396.403 634.501 397.618 633.476 398.668C636.936 397.676 640.613 396.676 644.08 397.638C648.472 398.856 652.262 403.121 656.714 402.15C659.391 401.556 661.271 399.18 663.678 397.864C668.19 395.435 673.627 396.961 678.658 397.743C679.743 397.999 680.877 397.942 681.93 397.578C682.735 397.145 683.417 396.517 683.915 395.751C685.278 393.953 686.33 391.94 687.029 389.794C686.526 390.714 685.958 391.596 685.329 392.434Z" fill="black"/>
</g>
</g>
<defs>
<linearGradient id="paint0_linear" x1="578.014" y1="460.561" x2="693.075" y2="460.561" gradientUnits="userSpaceOnUse">
<stop stop-color="#808080" stop-opacity="0.25"/>
<stop offset="0.54" stop-color="#808080" stop-opacity="0.12"/>
<stop offset="1" stop-color="#808080" stop-opacity="0.1"/>
</linearGradient>
<clipPath id="clip0">
<rect width="877" height="605.455" fill="white"/>
</clipPath>
</defs>
</svg>
