<svg width="547" height="606" viewBox="0 0 547 606" fill="none" xmlns="http://www.w3.org/2000/svg">
<path d="M29.1031 510.413L24.0566 489.43C15.1089 485.433 5.95452 481.97 -3.36303 479.059L-4 488.811L-6.58327 478.067C-18.1387 474.585 -26 473.053 -26 473.053C-26 473.053 -15.3839 515.622 6.88998 548.167L32.841 552.973L12.6804 556.038C15.4822 559.592 18.4932 562.957 21.6956 566.112C54.094 597.817 90.1804 612.363 102.296 598.602C114.411 584.84 97.9687 547.984 65.5702 516.283C55.5265 506.454 42.9094 498.567 30.2793 492.358L29.1031 510.413Z" fill="#F2F2F2"/>
<path d="M77.0957 487.622L83.0638 466.91C77.3649 458.612 71.2265 450.659 64.6779 443.089L59.3514 451.09L62.407 440.485C54.2211 431.21 48.2429 425.615 48.2429 425.615C48.2429 425.615 36.4613 467.843 39.5693 507.84L59.4283 526.096L40.6639 517.733C41.3205 522.303 42.2491 526.825 43.4441 531.272C55.6342 576.068 79.3936 608.185 96.5117 603.007C113.63 597.83 117.625 557.318 105.435 512.523C101.657 498.635 94.7224 485.008 86.9549 472.811L77.0957 487.622Z" fill="#F2F2F2"/>
<path d="M373.836 143.537H370.688V52.6214C370.688 45.7111 369.397 38.8684 366.889 32.4841C364.381 26.0997 360.704 20.2988 356.069 15.4125C351.434 10.5261 345.932 6.65004 339.876 4.00556C333.82 1.36109 327.33 0 320.775 0H138.064C124.827 0 112.131 5.54403 102.77 15.4125C93.4097 25.2809 88.151 38.6653 88.151 52.6214V551.399C88.151 558.309 89.442 565.152 91.9504 571.536C94.4588 577.92 98.1354 583.721 102.77 588.608C107.405 593.494 112.908 597.37 118.963 600.015C125.019 602.659 131.51 604.02 138.064 604.02H320.775C334.013 604.02 346.708 598.476 356.069 588.607C365.429 578.739 370.688 565.355 370.688 551.399V208.252H373.836L373.836 143.537Z" fill="#E6E6E6"/>
<path d="M322.789 13.6852H298.941C300.038 16.5201 300.457 19.596 300.16 22.6418C299.864 25.6875 298.861 28.6097 297.241 31.1508C295.621 33.6919 293.433 35.7739 290.87 37.2135C288.307 38.6531 285.447 39.406 282.543 39.4058H177.87C174.966 39.4057 172.107 38.6526 169.544 37.2129C166.981 35.7733 164.793 33.6912 163.173 31.1501C161.553 28.6091 160.551 25.687 160.255 22.6414C159.958 19.5957 160.377 16.52 161.474 13.6852H139.198C129.312 13.6852 119.831 17.8254 112.841 25.195C105.851 32.5647 101.923 42.5601 101.923 52.9823V551.035C101.923 561.458 105.851 571.453 112.841 578.823C119.831 586.192 129.312 590.333 139.198 590.333H322.789C332.675 590.333 342.156 586.192 349.146 578.823C356.137 571.453 360.064 561.458 360.064 551.035V52.9815C360.064 42.5594 356.136 32.5642 349.146 25.1947C342.156 17.8253 332.675 13.6852 322.789 13.6852Z" fill="white"/>
<path d="M207.599 212.084C207.599 208.603 208.468 205.183 210.12 202.168C211.771 199.153 214.147 196.651 217.008 194.912C214.148 193.171 210.905 192.254 207.603 192.254C204.301 192.253 201.057 193.169 198.197 194.909C195.338 196.65 192.963 199.153 191.312 202.168C189.661 205.182 188.792 208.602 188.792 212.083C188.792 215.564 189.661 218.984 191.312 221.998C192.963 225.013 195.338 227.516 198.197 229.257C201.057 230.997 204.301 231.913 207.603 231.912C210.905 231.912 214.148 230.995 217.008 229.254C214.147 227.516 211.772 225.013 210.12 221.999C208.468 218.985 207.599 215.565 207.599 212.084Z" fill="#CCCCCC"/>
<path d="M231.245 212.084C231.244 208.603 232.113 205.183 233.765 202.168C235.417 199.153 237.792 196.651 240.653 194.912C237.794 193.171 234.55 192.254 231.248 192.254C227.946 192.253 224.703 193.169 221.843 194.909C218.983 196.65 216.609 199.153 214.958 202.168C213.306 205.182 212.437 208.602 212.437 212.083C212.437 215.564 213.306 218.984 214.958 221.998C216.609 225.013 218.983 227.516 221.843 229.257C224.703 230.997 227.946 231.913 231.248 231.912C234.55 231.912 237.794 230.995 240.653 229.254C237.793 227.516 235.417 225.013 233.765 221.999C232.114 218.985 231.244 215.565 231.245 212.084Z" fill="#CCCCCC"/>
<path d="M254.353 231.913C264.741 231.913 273.162 223.035 273.162 212.083C273.162 201.132 264.741 192.254 254.353 192.254C243.966 192.254 235.544 201.132 235.544 212.083C235.544 223.035 243.966 231.913 254.353 231.913Z" fill="#037EF3"/>
<path d="M285.788 274.019H176.165C175.121 274.017 174.121 273.58 173.383 272.802C172.645 272.024 172.23 270.969 172.228 269.869V154.298C172.23 153.198 172.645 152.143 173.383 151.365C174.121 150.587 175.121 150.149 176.165 150.148H285.788C286.831 150.149 287.832 150.587 288.57 151.365C289.308 152.143 289.723 153.198 289.724 154.298V269.869C289.723 270.969 289.308 272.024 288.57 272.802C287.832 273.58 286.831 274.017 285.788 274.019ZM176.165 151.809C175.539 151.81 174.938 152.072 174.496 152.539C174.053 153.006 173.804 153.639 173.803 154.299V269.869C173.804 270.53 174.053 271.162 174.496 271.629C174.938 272.096 175.539 272.359 176.165 272.359H285.788C286.414 272.359 287.014 272.096 287.457 271.629C287.9 271.162 288.149 270.53 288.15 269.869V154.299C288.149 153.639 287.9 153.006 287.457 152.539C287.014 152.072 286.414 151.81 285.788 151.809H176.165Z" fill="#CCCCCC"/>
<path d="M310.265 362.609H142.136V364.269H310.265V362.609Z" fill="#CCCCCC"/>
<path d="M147.446 352.244C150.378 352.244 152.756 349.738 152.756 346.646C152.756 343.555 150.378 341.048 147.446 341.048C144.514 341.048 142.136 343.555 142.136 346.646C142.136 349.738 144.514 352.244 147.446 352.244Z" fill="#037EF3"/>
<path d="M310.265 418.582H142.136V420.242H310.265V418.582Z" fill="#CCCCCC"/>
<path d="M147.446 408.218C150.378 408.218 152.756 405.712 152.756 402.62C152.756 399.529 150.378 397.023 147.446 397.023C144.514 397.023 142.136 399.529 142.136 402.62C142.136 405.712 144.514 408.218 147.446 408.218Z" fill="#037EF3"/>
<path d="M307.188 482.322H254.055C253.137 482.321 252.257 481.936 251.608 481.252C250.959 480.568 250.594 479.64 250.593 478.672V459.039C250.594 458.072 250.959 457.144 251.608 456.46C252.257 455.776 253.137 455.391 254.055 455.39H307.188C308.106 455.391 308.986 455.776 309.635 456.46C310.284 457.144 310.649 458.072 310.65 459.039V478.672C310.649 479.64 310.284 480.568 309.635 481.252C308.986 481.936 308.106 482.321 307.188 482.322Z" fill="#037EF3"/>
<path d="M164.766 352.244C167.698 352.244 170.075 349.738 170.075 346.646C170.075 343.555 167.698 341.048 164.766 341.048C161.833 341.048 159.456 343.555 159.456 346.646C159.456 349.738 161.833 352.244 164.766 352.244Z" fill="#037EF3"/>
<path d="M182.085 352.244C185.018 352.244 187.395 349.738 187.395 346.646C187.395 343.555 185.018 341.048 182.085 341.048C179.153 341.048 176.776 343.555 176.776 346.646C176.776 349.738 179.153 352.244 182.085 352.244Z" fill="#037EF3"/>
<path d="M164.766 408.218C167.698 408.218 170.075 405.712 170.075 402.62C170.075 399.529 167.698 397.023 164.766 397.023C161.833 397.023 159.456 399.529 159.456 402.62C159.456 405.712 161.833 408.218 164.766 408.218Z" fill="#037EF3"/>
<path d="M182.085 408.218C185.018 408.218 187.395 405.712 187.395 402.62C187.395 399.529 185.018 397.023 182.085 397.023C179.153 397.023 176.776 399.529 176.776 402.62C176.776 405.712 179.153 408.218 182.085 408.218Z" fill="#037EF3"/>
<path d="M544.86 605.894H-7.47569C-8.65808 605.894 -9.61584 605.452 -9.61584 604.907C-9.61584 604.362 -8.65808 603.918 -7.47569 603.918H544.86C546.041 603.918 547 604.361 547 604.907C547 605.452 546.041 605.894 544.86 605.894Z" fill="#3F3D56"/>
<path d="M408.397 396.963C408.774 397.145 409.137 397.358 409.482 397.602L443.986 382.076L445.218 372.494L459.005 372.405L458.19 394.382L412.649 407.079C412.553 407.413 412.438 407.74 412.304 408.059C411.646 409.54 410.587 410.783 409.261 411.632C407.934 412.481 406.4 412.898 404.849 412.83C403.299 412.762 401.802 412.213 400.547 411.252C399.292 410.29 398.334 408.959 397.794 407.426C397.254 405.892 397.156 404.225 397.512 402.633C397.868 401.04 398.662 399.595 399.795 398.477C400.928 397.359 402.348 396.619 403.879 396.35C405.409 396.08 406.981 396.294 408.397 396.963Z" fill="#FFB8B8"/>
<path d="M464.019 596.117H454.587L450.101 557.765L464.02 557.766L464.019 596.117Z" fill="#FFB8B8"/>
<path d="M447.851 593.276H466.04V605.349H436.398C436.398 602.147 437.605 599.076 439.753 596.812C441.9 594.548 444.813 593.276 447.851 593.276Z" fill="#2F2E41"/>
<path d="M500.698 593.307L491.312 594.282L483.28 556.58L497.133 555.141L500.698 593.307Z" fill="#FFB8B8"/>
<path d="M484.344 592.151L502.446 590.271L503.568 602.287L474.07 605.35C473.922 603.772 474.071 602.179 474.508 600.662C474.944 599.144 475.66 597.733 476.614 596.507C477.568 595.281 478.742 594.266 480.068 593.518C481.395 592.771 482.848 592.306 484.344 592.151Z" fill="#2F2E41"/>
<path d="M466.644 331.816C477.079 331.816 485.538 322.898 485.538 311.897C485.538 300.896 477.079 291.978 466.644 291.978C456.209 291.978 447.75 300.896 447.75 311.897C447.75 322.898 456.209 331.816 466.644 331.816Z" fill="#FFB8B8"/>
<path d="M452.48 588.361C451.669 588.363 450.884 588.064 450.263 587.515C449.641 586.966 449.224 586.204 449.083 585.362C444.202 556.794 428.245 463.381 427.863 460.793C427.855 460.734 427.851 460.674 427.851 460.613V453.648C427.851 453.395 427.926 453.147 428.066 452.941L430.174 449.829C430.275 449.679 430.406 449.555 430.558 449.467C430.711 449.38 430.88 449.33 431.054 449.322C443.072 448.728 482.43 446.987 484.332 449.491C486.241 452.008 485.567 459.634 485.412 461.138L485.419 461.295L503.102 580.511C503.24 581.461 503.018 582.431 502.483 583.211C501.948 583.99 501.144 584.516 500.244 584.675L489.2 586.593C488.377 586.733 487.535 586.556 486.825 586.096C486.116 585.635 485.586 584.922 485.334 584.085C481.918 572.578 470.464 533.868 466.494 518.89C466.47 518.795 466.413 518.713 466.335 518.659C466.257 518.605 466.163 518.583 466.07 518.596C465.978 518.61 465.894 518.659 465.833 518.734C465.772 518.808 465.739 518.904 465.74 519.002C465.939 533.281 466.418 569.71 466.583 582.292L466.601 583.647C466.609 584.564 466.289 585.451 465.706 586.132C465.123 586.814 464.319 587.24 463.453 587.326L452.803 588.346C452.695 588.356 452.586 588.361 452.48 588.361Z" fill="#2F2E41"/>
<path d="M454.653 339.649C451.355 341.715 449.382 345.513 448.25 349.377C446.154 356.531 444.892 363.928 444.493 371.404L443.296 393.788L428.483 453.131C441.322 464.583 448.727 461.98 466.009 452.613C483.291 443.245 485.266 455.736 485.266 455.736L488.722 405.243L493.66 350.068C492.552 348.661 491.297 347.389 489.92 346.277C485.356 342.535 480.046 339.935 474.391 338.671C468.735 337.407 462.881 337.513 457.27 338.981L454.653 339.649Z" fill="#EEEEEE"/>
<path d="M449.841 408.948C450.24 409.106 450.626 409.297 450.996 409.519L485.112 391.516L485.678 381.763L499.752 380.741L500.506 402.973L454.913 418.868C454.541 420.552 453.692 422.076 452.478 423.238C451.264 424.399 449.743 425.144 448.118 425.373C446.493 425.602 444.84 425.303 443.38 424.517C441.919 423.732 440.721 422.496 439.943 420.974C439.165 419.453 438.845 417.718 439.025 416C439.205 414.282 439.877 412.662 440.952 411.357C442.026 410.051 443.452 409.121 445.04 408.691C446.628 408.261 448.303 408.35 449.841 408.948Z" fill="#FFB8B8"/>
<path d="M493.413 350.32C501.807 353.443 503.285 387.281 503.285 387.281C493.41 381.555 481.56 390.925 481.56 390.925C481.56 390.925 479.091 382.076 476.128 370.624C475.234 367.402 475.127 363.995 475.817 360.718C476.508 357.442 477.974 354.403 480.078 351.884C480.078 351.884 485.019 347.195 493.413 350.32Z" fill="#EEEEEE"/>
<path d="M483.586 317.165C481.232 315.179 478.02 318.788 478.02 318.788L476.136 300.919C476.136 300.919 464.365 302.405 456.832 300.423C449.299 298.44 448.122 307.621 448.122 307.621C447.734 303.912 447.655 300.175 447.887 296.452C448.357 291.985 454.478 287.517 465.307 284.539C476.136 281.56 481.786 294.466 481.786 294.466C489.32 298.437 485.94 319.151 483.586 317.165Z" fill="#2F2E41"/>
</svg>
